# file written by OpenSceneGraph

mtllib cow.mtl


g Group_0

o Group__Geometry_0
usemtl material_1

v 2.44024 0.58076 -3.0709
v 2.3433 0.7566 -3.06919
v 2.28123 0.60482 -2.89959
v 2.44024 0.58076 -3.0709
v 2.3433 0.7566 -3.06919
v 2.38683 0.69782 -3.02356
v 2.44024 0.58076 -3.0709
v 2.3433 0.7566 -3.06919
v 2.23 0.820292 -3.101
v 2.44024 0.58076 -3.0709
v 2.3433 0.7566 -3.06919
v 1.96649 0.431404 -2.3365
v 2.44024 0.58076 -3.0709
v 2.28123 0.60482 -2.89959
v 2.38683 0.69782 -3.02356
v 2.44024 0.58076 -3.0709
v 2.28123 0.60482 -2.89959
v 1.96649 0.431404 -2.3365
v 2.44024 0.58076 -3.0709
v 2.38185 0.362062 -3.03696
v 1.96649 0.431404 -2.3365
v 2.44024 0.58076 -3.0709
v 2.38185 0.362062 -3.03696
v 1.98167 0.281293 -3.13502
v 2.44024 0.58076 -3.0709
v 2.23 0.820292 -3.101
v 1.96649 0.431404 -2.3365
v 2.44024 0.58076 -3.0709
v 2.23 0.820292 -3.101
v 1.98167 0.281293 -3.13502
v 5.09615 0.336069 3.19838
v 4.69949 0.549348 3.17543
v 4.88155 0.419847 3.03275
v 5.09615 0.336069 3.19838
v 4.69949 0.549348 3.17543
v 4.57959 0.362666 3.14204
v 5.09615 0.336069 3.19838
v 4.88155 0.419847 3.03275
v 4.57959 0.362666 3.14204
v -3.67645 -0.516234 -0.112657
v -3.72947 -0.535606 -0.430711
v -3.69789 -0.537453 -0.513295
v -3.67645 -0.516234 -0.112657
v -3.72947 -0.535606 -0.430711
v -3.69978 -0.527324 -0.321241
v -3.67645 -0.516234 -0.112657
v -3.72947 -0.535606 -0.430711
v -3.67919 -0.535856 -0.788963
v -3.67645 -0.516234 -0.112657
v -3.72947 -0.535606 -0.430711
v -3.83676 -0.461847 0.297547
v -3.67645 -0.516234 -0.112657
v -3.69789 -0.537453 -0.513295
v -3.69978 -0.527324 -0.321241
v -3.67645 -0.516234 -0.112657
v -3.69789 -0.537453 -0.513295
v -3.67919 -0.535856 -0.788963
v -3.67645 -0.516234 -0.112657
v -3.67919 -0.535856 -0.788963
v -3.53963 -0.36961 -0.843809
v -3.67645 -0.516234 -0.112657
v -3.53963 -0.36961 -0.843809
v -3.6596 -0.468259 0.523149
v -3.67645 -0.516234 -0.112657
v -3.83676 -0.461847 0.297547
v -3.6596 -0.468259 0.523149
v 4.18988 -0.437797 3.04558
v 4.10274 -0.220275 3.01601
v 4.21453 -0.688747 3.03331
v 4.18988 -0.437797 3.04558
v 4.10274 -0.220275 3.01601
v 4.29124 -0.143004 3.04284
v 4.18988 -0.437797 3.04558
v 4.21453 -0.688747 3.03331
v 4.29124 -0.143004 3.04284
v -3.39281 -0.43866 2.20802
v -3.34827 -0.438575 2.2064
v -3.50769 -0.43866 2.13887
v -3.39281 -0.43866 2.20802
v -3.34827 -0.438575 2.2064
v -3.42302 -0.341531 2.22996
v -3.39281 -0.43866 2.20802
v -3.34827 -0.438575 2.2064
v -3.40261 -0.576473 2.30852
v -3.39281 -0.43866 2.20802
v -3.50769 -0.43866 2.13887
v -3.34541 0.0208627 2.24025
v -3.39281 -0.43866 2.20802
v -3.50769 -0.43866 2.13887
v -3.42302 -0.341531 2.22996
v -3.39281 -0.43866 2.20802
v -3.50769 -0.43866 2.13887
v -3.40261 -0.576473 2.30852
v -3.39281 -0.43866 2.20802
v -3.50769 -0.43866 2.13887
v -3.35041 -1.06474 2.17001
v -3.39281 -0.43866 2.20802
v -3.40531 -0.291025 2.34783
v -3.34541 0.0208627 2.24025
v -3.39281 -0.43866 2.20802
v -3.40531 -0.291025 2.34783
v -3.42302 -0.341531 2.22996
v -3.39281 -0.43866 2.20802
v -3.40261 -0.576473 2.30852
v -3.35041 -1.06474 2.17001
v -3.82037 -0.168853 -0.80048
v -3.82849 -0.324565 -1.3479
v -3.89039 -0.456272 -1.31144
v -3.82037 -0.168853 -0.80048
v -3.82849 -0.324565 -1.3479
v -3.68307 -0.323427 -1.15331
v -3.82037 -0.168853 -0.80048
v -3.89039 -0.456272 -1.31144
v -3.68307 -0.323427 -1.15331
v -3.82037 -0.168853 -0.80048
v -3.89039 -0.456272 -1.31144
v -3.98127 -0.197634 -1.24327
v -3.82037 -0.168853 -0.80048
v -3.68307 -0.323427 -1.15331
v -3.53963 -0.36961 -0.843809
v -3.82037 -0.168853 -0.80048
v -3.98127 -0.197634 -1.24327
v -4.2124 -0.183156 -1.16278
v -3.82037 -0.168853 -0.80048
v -3.53963 -0.36961 -0.843809
v -3.75415 -0.321703 0.290218
v -3.82037 -0.168853 -0.80048
v -4.2124 -0.183156 -1.16278
v -3.75415 -0.321703 0.290218
v -3.82849 -0.324565 -1.3479
v -3.89039 -0.456272 -1.31144
v -3.68307 -0.323427 -1.15331
v -3.89039 -0.456272 -1.31144
v -3.68307 -0.323427 -1.15331
v -3.77885 -0.546432 -0.997631
v -3.89039 -0.456272 -1.31144
v -3.77885 -0.546432 -0.997631
v -4.40881 -0.635619 -1.49561
v -3.89039 -0.456272 -1.31144
v -4.15092 -0.439475 -1.51159
v -3.98127 -0.197634 -1.24327
v -3.89039 -0.456272 -1.31144
v -4.15092 -0.439475 -1.51159
v -4.40881 -0.635619 -1.49561
v 5.09615 -1.21339 3.19838
v 4.45887 -1.19276 3.12041
v 4.45494 -1.17931 2.89787
v 5.09615 -1.21339 3.19838
v 4.45887 -1.19276 3.12041
v 4.83037 -1.39068 3.11158
v 5.09615 -1.21339 3.19838
v 4.45494 -1.17931 2.89787
v 4.83037 -1.39068 3.11158
v 4.826 -1.01474 2.52784
v 4.75152 -1.07279 2.47832
v 4.76092 -1.05178 2.32002
v 4.826 -1.01474 2.52784
v 4.75152 -1.07279 2.47832
v 4.78848 -1.04728 2.46671
v 4.826 -1.01474 2.52784
v 4.75152 -1.07279 2.47832
v 4.88676 -0.990562 2.62726
v 4.826 -1.01474 2.52784
v 4.76092 -1.05178 2.32002
v 4.78848 -1.04728 2.46671
v 4.826 -1.01474 2.52784
v 4.76092 -1.05178 2.32002
v 4.88031 -1.05725 2.41128
v 4.826 -1.01474 2.52784
v 4.88031 -1.05725 2.41128
v 4.88676 -0.990562 2.62726
v -2.52472 0.72288 -3.12295
v -2.63155 0.89872 -3.12123
v -2.58358 0.83994 -3.07561
v -2.52472 0.72288 -3.12295
v -2.63155 0.89872 -3.12123
v -2.69996 0.74693 -2.95164
v -2.52472 0.72288 -3.12295
v -2.63155 0.89872 -3.12123
v -2.90107 0.974177 -3.17774
v -2.52472 0.72288 -3.12295
v -2.63155 0.89872 -3.12123
v -3.01298 0.579757 -2.44568
v -2.52472 0.72288 -3.12295
v -2.58358 0.83994 -3.07561
v -2.69996 0.74693 -2.95164
v -2.52472 0.72288 -3.12295
v -2.69996 0.74693 -2.95164
v -3.01298 0.579757 -2.44568
v -2.52472 0.72288 -3.12295
v -2.58939 0.50415 -3.08892
v -3.01298 0.579757 -2.44568
v -2.52472 0.72288 -3.12295
v -2.58939 0.50415 -3.08892
v -2.94801 0.378381 -3.18249
v -2.52472 0.72288 -3.12295
v -2.90107 0.974177 -3.17774
v -3.01298 0.579757 -2.44568
v -2.52472 0.72288 -3.12295
v -2.90107 0.974177 -3.17774
v -2.94801 0.378381 -3.18249
v -2.63155 0.89872 -3.12123
v -2.58358 0.83994 -3.07561
v -2.69996 0.74693 -2.95164
v -2.63155 0.89872 -3.12123
v -2.69996 0.74693 -2.95164
v -3.01298 0.579757 -2.44568
v -2.63155 0.89872 -3.12123
v -2.90107 0.974177 -3.17774
v -3.01298 0.579757 -2.44568
v 5.80342 -0.228658 1.69945
v 5.79158 -0.157538 1.78127
v 5.87101 -0.268101 1.62285
v 5.80342 -0.228658 1.69945
v 5.79158 -0.157538 1.78127
v 5.79088 -0.116799 1.62144
v 5.80342 -0.228658 1.69945
v 5.87101 -0.268101 1.62285
v 5.79088 -0.116799 1.62144
v -3.68307 -0.323427 -1.15331
v -3.77885 -0.546432 -0.997631
v -3.53963 -0.36961 -0.843809
v 4.75152 -1.07279 2.47832
v 4.76092 -1.05178 2.32002
v 4.78848 -1.04728 2.46671
v 4.75152 -1.07279 2.47832
v 4.76092 -1.05178 2.32002
v 4.77193 -1.03116 2.10129
v 4.75152 -1.07279 2.47832
v 4.77193 -1.03116 2.10129
v 4.88676 -0.990562 2.62726
v -3.34827 -0.438575 2.2064
v -3.50769 -0.43866 2.13887
v -3.42302 -0.341531 2.22996
v -3.34827 -0.438575 2.2064
v -3.50769 -0.43866 2.13887
v -3.40261 -0.576473 2.30852
v 4.9534 0.166949 2.3466
v 4.95374 0.153596 2.39124
v 5.0019 0.0480641 2.35306
v 4.9534 0.166949 2.3466
v 4.95374 0.153596 2.39124
v 4.97187 0.147366 2.36274
v 4.9534 0.166949 2.3466
v 4.95374 0.153596 2.39124
v 4.92371 0.188124 2.42036
v 4.9534 0.166949 2.3466
v 5.0019 0.0480641 2.35306
v 4.97187 0.147366 2.36274
v 4.9534 0.166949 2.3466
v 5.0019 0.0480641 2.35306
v 4.95694 0.117387 2.27254
v 4.9534 0.166949 2.3466
v 5.0019 0.0480641 2.35306
v 4.92371 0.188124 2.42036
v 4.9534 0.166949 2.3466
v 4.95694 0.117387 2.27254
v 4.92371 0.188124 2.42036
v 4.95374 0.153596 2.39124
v 5.0019 0.0480641 2.35306
v 4.97187 0.147366 2.36274
v 4.95374 0.153596 2.39124
v 5.0019 0.0480641 2.35306
v 4.92371 0.188124 2.42036
v 2.3433 0.7566 -3.06919
v 2.28123 0.60482 -2.89959
v 2.38683 0.69782 -3.02356
v 2.3433 0.7566 -3.06919
v 2.28123 0.60482 -2.89959
v 1.96649 0.431404 -2.3365
v 2.3433 0.7566 -3.06919
v 2.23 0.820292 -3.101
v 1.96649 0.431404 -2.3365
v -3.50769 -0.43866 2.13887
v -3.71506 -0.723535 2.03275
v -3.35041 -1.06474 2.17001
v -3.50769 -0.43866 2.13887
v -3.71506 -0.723535 2.03275
v -3.72148 -0.0754615 1.98849
v -3.50769 -0.43866 2.13887
v -3.34541 0.0208627 2.24025
v -3.72148 -0.0754615 1.98849
v -3.50769 -0.43866 2.13887
v -3.42302 -0.341531 2.22996
v -3.67968 -0.474113 1.85268
v -3.50769 -0.43866 2.13887
v -3.67968 -0.474113 1.85268
v -3.40261 -0.576473 2.30852
v -3.50769 -0.43866 2.13887
v -3.40261 -0.576473 2.30852
v -3.35041 -1.06474 2.17001
v 4.76092 -1.05178 2.32002
v 4.77193 -1.03116 2.10129
v 4.88031 -1.05725 2.41128
v -3.72947 -0.535606 -0.430711
v -3.69789 -0.537453 -0.513295
v -3.69978 -0.527324 -0.321241
v -3.72947 -0.535606 -0.430711
v -3.69789 -0.537453 -0.513295
v -3.67919 -0.535856 -0.788963
v -3.72947 -0.535606 -0.430711
v -3.67919 -0.535856 -0.788963
v -4.40881 -0.635619 -1.49561
v -3.72947 -0.535606 -0.430711
v -3.83676 -0.461847 0.297547
v -4.40881 -0.635619 -1.49561
v 1.37322 0.66759 -0.12596
v 0.88856 0.824715 0.204162
v 1.29805 0.496889 -0.655773
v 1.37322 0.66759 -0.12596
v 0.88856 0.824715 0.204162
v 1.87402 0.913469 0.195577
v 1.37322 0.66759 -0.12596
v 1.29805 0.496889 -0.655773
v 1.48575 0.677148 -0.874174
v 1.37322 0.66759 -0.12596
v 1.48575 0.677148 -0.874174
v 1.87402 0.913469 0.195577
v 5.0019 0.0480641 2.35306
v 4.95694 0.117387 2.27254
v 5.15673 -0.221777 2.35689
v 5.0019 0.0480641 2.35306
v 4.95694 0.117387 2.27254
v 4.92371 0.188124 2.42036
v 5.0019 0.0480641 2.35306
v 5.15673 -0.221777 2.35689
v 4.92371 0.188124 2.42036
v -3.77885 -0.546432 -0.997631
v -3.67919 -0.535856 -0.788963
v -3.53963 -0.36961 -0.843809
v -3.77885 -0.546432 -0.997631
v -3.67919 -0.535856 -0.788963
v -4.40881 -0.635619 -1.49561
v 4.35453 0.350922 2.5125
v 4.28846 0.121961 2.39302
v 4.18727 0.355817 2.46801
v 4.35453 0.350922 2.5125
v 4.28846 0.121961 2.39302
v 4.21621 0.161973 2.72674
v 4.35453 0.350922 2.5125
v 4.18727 0.355817 2.46801
v 4.34094 0.481239 2.80284
v 4.35453 0.350922 2.5125
v 4.34094 0.481239 2.80284
v 4.21621 0.161973 2.72674
v -3.02956 0.208435 -1.31291
v -2.7831 0.274821 -1.34408
v -2.70558 0.0973407 -1.44413
v -3.02956 0.208435 -1.31291
v -2.7831 0.274821 -1.34408
v -3.05709 0.413157 -1.83442
v -3.02956 0.208435 -1.31291
v -3.38742 0.219621 -1.06876
v -3.14243 -0.467809 -1.29229
v -3.02956 0.208435 -1.31291
v -3.38742 0.219621 -1.06876
v -3.05709 0.413157 -1.83442
v -3.02956 0.208435 -1.31291
v -2.70558 0.0973407 -1.44413
v -3.14243 -0.467809 -1.29229
v 5.79158 -0.157538 1.78127
v 5.87101 -0.268101 1.62285
v 5.79088 -0.116799 1.62144
v 5.79158 -0.157538 1.78127
v 5.87101 -0.268101 1.62285
v 5.98211 -0.267709 1.57947
v 5.79158 -0.157538 1.78127
v 5.79088 -0.116799 1.62144
v 5.98211 -0.267709 1.57947
v 5.79158 -0.157538 1.78127
v 5.79088 -0.116799 1.62144
v 5.33207 -0.0745572 1.75178
v 5.79158 -0.157538 1.78127
v 5.93365 -0.277686 1.81286
v 5.98211 -0.267709 1.57947
v 5.79158 -0.157538 1.78127
v 5.93365 -0.277686 1.81286
v 5.33207 -0.0745572 1.75178
v -3.01797 0.505151 -2.32996
v -3.01298 0.579757 -2.44568
v -3.14083 0.385814 -2.53225
v -3.01797 0.505151 -2.32996
v -3.01298 0.579757 -2.44568
v -2.98993 0.577971 -1.57229
v -3.01797 0.505151 -2.32996
v -3.05709 0.413157 -1.83442
v -3.14083 0.385814 -2.53225
v -3.01797 0.505151 -2.32996
v -3.05709 0.413157 -1.83442
v -2.98993 0.577971 -1.57229
v 3.26135 -0.746962 2.25799
v 4.00358 -0.729711 2.87832
v 3.46175 -0.452623 2.63271
v 3.26135 -0.746962 2.25799
v 4.00358 -0.729711 2.87832
v 3.81358 -0.830359 2.66607
v 3.26135 -0.746962 2.25799
v 2.70225 -0.958342 1.51695
v 2.59317 -0.590647 2.2602
v 3.26135 -0.746962 2.25799
v 2.70225 -0.958342 1.51695
v 3.41262 -0.924025 0.851519
v 3.26135 -0.746962 2.25799
v 3.46175 -0.452623 2.63271
v 2.59317 -0.590647 2.2602
v 3.26135 -0.746962 2.25799
v 3.41262 -0.924025 0.851519
v 4.08084 -0.968236 2.30332
v 3.26135 -0.746962 2.25799
v 4.08084 -0.968236 2.30332
v 3.81358 -0.830359 2.66607
v 4.08213 1.01028 2.58942
v 4.11738 0.953756 2.83889
v 4.00928 0.437489 2.4821
v 4.08213 1.01028 2.58942
v 4.11738 0.953756 2.83889
v 4.14857 0.564129 2.24708
v 4.08213 1.01028 2.58942
v 4.00928 0.437489 2.4821
v 4.14857 0.564129 2.24708
v -2.31067 -0.426332 -1.4329
v -2.57339 -0.0379351 -1.47545
v -3.14243 -0.467809 -1.29229
v -2.31067 -0.426332 -1.4329
v -2.57339 -0.0379351 -1.47545
v -2.46191 0.115365 -1.43227
v -2.31067 -0.426332 -1.4329
v -2.55288 -0.843214 -1.47613
v -3.14243 -0.467809 -1.29229
v -2.31067 -0.426332 -1.4329
v -2.55288 -0.843214 -1.47613
v -2.46097 -0.993101 -1.43267
v -2.31067 -0.426332 -1.4329
v -2.16285 -0.876118 -1.45901
v -2.46097 -0.993101 -1.43267
v -2.31067 -0.426332 -1.4329
v -2.16285 -0.876118 -1.45901
v -1.90651 -0.791682 -1.41834
v -2.31067 -0.426332 -1.4329
v -1.87432 -0.0873502 -1.37701
v -1.90651 -0.791682 -1.41834
v -2.31067 -0.426332 -1.4329
v -1.87432 -0.0873502 -1.37701
v -2.15842 -0.019478 -1.46923
v -2.31067 -0.426332 -1.4329
v -2.46191 0.115365 -1.43227
v -2.15842 -0.019478 -1.46923
v -1.53532 -0.0731694 -1.24744
v -1.53901 -0.786287 -1.2556
v -1.87432 -0.0873502 -1.37701
v -1.53532 -0.0731694 -1.24744
v -1.53901 -0.786287 -1.2556
v -0.644356 0.324296 -1.37441
v -1.53532 -0.0731694 -1.24744
v -1.61831 0.317467 -1.08984
v -1.87432 -0.0873502 -1.37701
v -1.53532 -0.0731694 -1.24744
v -1.61831 0.317467 -1.08984
v -0.644356 0.324296 -1.37441
v 0.653363 -0.434485 2.16867
v 0.445786 -0.0543261 1.961
v 2.16385 0.0676309 2.04817
v 0.653363 -0.434485 2.16867
v 0.445786 -0.0543261 1.961
v -2.81106 -0.492389 2.37102
v 0.653363 -0.434485 2.16867
v 0.289322 -0.881771 1.9158
v 2.12543 -1.00923 2.0387
v 0.653363 -0.434485 2.16867
v 0.289322 -0.881771 1.9158
v -2.81106 -0.492389 2.37102
v 0.653363 -0.434485 2.16867
v 2.59317 -0.590647 2.2602
v 2.12543 -1.00923 2.0387
v 0.653363 -0.434485 2.16867
v 2.59317 -0.590647 2.2602
v 2.16385 0.0676309 2.04817
v 4.10274 -0.220275 3.01601
v 4.21453 -0.688747 3.03331
v 4.29124 -0.143004 3.04284
v 4.10274 -0.220275 3.01601
v 4.21453 -0.688747 3.03331
v 4.25852 -1.25941 3.10424
v 4.10274 -0.220275 3.01601
v 4.29124 -0.143004 3.04284
v 4.2444 0.395819 3.07806
v 4.10274 -0.220275 3.01601
v 3.94325 -0.163226 2.85015
v 4.25852 -1.25941 3.10424
v 4.10274 -0.220275 3.01601
v 3.94325 -0.163226 2.85015
v 4.2444 0.395819 3.07806
v -4.15092 -0.439475 -1.51159
v -4.37654 -0.476637 -1.5227
v -4.2124 -0.183156 -1.16278
v -4.15092 -0.439475 -1.51159
v -4.37654 -0.476637 -1.5227
v -4.40881 -0.635619 -1.49561
v -4.15092 -0.439475 -1.51159
v -3.98127 -0.197634 -1.24327
v -4.2124 -0.183156 -1.16278
v -4.15092 -0.439475 -1.51159
v -4.2124 -0.183156 -1.16278
v -4.40881 -0.635619 -1.49561
v 4.21453 -0.688747 3.03331
v 4.45367 -0.741716 2.915
v 4.29124 -0.143004 3.04284
v 4.21453 -0.688747 3.03331
v 4.45367 -0.741716 2.915
v 4.45887 -1.19276 3.12041
v 4.21453 -0.688747 3.03331
v 4.25852 -1.25941 3.10424
v 4.45887 -1.19276 3.12041
v 2.38185 0.362062 -3.03696
v 1.95944 0.235569 -2.67272
v 1.96649 0.431404 -2.3365
v 2.38185 0.362062 -3.03696
v 1.95944 0.235569 -2.67272
v 1.98167 0.281293 -3.13502
v -2.9107 0.860035 0.000675486
v -3.52285 0.381337 0.816442
v -3.23412 0.443422 -0.704446
v -2.9107 0.860035 0.000675486
v -3.52285 0.381337 0.816442
v -2.92276 0.66395 1.79985
v -2.9107 0.860035 0.000675486
v -3.23412 0.443422 -0.704446
v -3.05724 0.670346 -1.23617
v -2.9107 0.860035 0.000675486
v -1.98165 0.95675 0.165244
v -3.05724 0.670346 -1.23617
v -2.9107 0.860035 0.000675486
v -1.98165 0.95675 0.165244
v -2.92276 0.66395 1.79985
v -4.2258 -0.459798 -0.692976
v -3.83676 -0.461847 0.297547
v -4.2124 -0.183156 -1.16278
v -4.2258 -0.459798 -0.692976
v -3.83676 -0.461847 0.297547
v -4.40881 -0.635619 -1.49561
v -4.2258 -0.459798 -0.692976
v -4.2124 -0.183156 -1.16278
v -4.40881 -0.635619 -1.49561
v -2.58939 0.50415 -3.08892
v -3.01298 0.579757 -2.44568
v -3.14083 0.385814 -2.53225
v -2.58939 0.50415 -3.08892
v -3.14083 0.385814 -2.53225
v -2.94801 0.378381 -3.18249
v 5.87448 -0.609814 1.62101
v 5.76011 -0.706951 1.80261
v 5.81336 -0.787936 1.51655
v 5.87448 -0.609814 1.62101
v 5.76011 -0.706951 1.80261
v 5.98747 -0.576032 1.65424
v 5.87448 -0.609814 1.62101
v 5.81336 -0.787936 1.51655
v 5.98747 -0.576032 1.65424
v -2.01367 -0.973306 -1.63974
v -2.01044 -0.99412 -1.38076
v -1.90651 -0.791682 -1.41834
v -2.01367 -0.973306 -1.63974
v -2.01044 -0.99412 -1.38076
v -2.1029 -0.89367 -1.70776
v -2.01367 -0.973306 -1.63974
v -1.90651 -0.791682 -1.41834
v -2.1029 -0.89367 -1.70776
v 5.93534 -0.576427 1.47139
v 5.758 -0.511112 1.29504
v 5.81336 -0.787936 1.51655
v 5.93534 -0.576427 1.47139
v 5.758 -0.511112 1.29504
v 5.98747 -0.576032 1.65424
v 5.93534 -0.576427 1.47139
v 5.81336 -0.787936 1.51655
v 5.98747 -0.576032 1.65424
v 4.47184 -0.88285 2.75962
v 4.45367 -0.741716 2.915
v 4.88676 -0.990562 2.62726
v 4.47184 -0.88285 2.75962
v 4.45367 -0.741716 2.915
v 4.45494 -1.17931 2.89787
v 4.47184 -0.88285 2.75962
v 4.21208 -1.02767 2.76074
v 4.31477 -0.990363 2.42307
v 4.47184 -0.88285 2.75962
v 4.21208 -1.02767 2.76074
v 4.45494 -1.17931 2.89787
v 4.47184 -0.88285 2.75962
v 4.31477 -0.990363 2.42307
v 4.88676 -0.990562 2.62726
v -2.57339 -0.0379351 -1.47545
v -2.70558 0.0973407 -1.44413
v -3.14243 -0.467809 -1.29229
v -2.57339 -0.0379351 -1.47545
v -2.70558 0.0973407 -1.44413
v -2.59184 0.0801952 -1.75618
v -2.57339 -0.0379351 -1.47545
v -2.70558 0.0973407 -1.44413
v -2.46191 0.115365 -1.43227
v -2.57339 -0.0379351 -1.47545
v -2.59184 0.0801952 -1.75618
v -2.46191 0.115365 -1.43227
v -1.45722 0.460794 -0.866158
v -1.61831 0.317467 -1.08984
v -2.57978 0.503925 -1.04554
v -1.45722 0.460794 -0.866158
v -1.61831 0.317467 -1.08984
v -0.644356 0.324296 -1.37441
v -1.45722 0.460794 -0.866158
v -1.98905 0.553633 -0.41503
v -1.16551 1.09479 -0.686618
v -1.45722 0.460794 -0.866158
v -1.98905 0.553633 -0.41503
v -2.57978 0.503925 -1.04554
v -1.45722 0.460794 -0.866158
v -1.16551 1.09479 -0.686618
v -0.644356 0.324296 -1.37441
v -4.37654 -0.476637 -1.5227
v -4.2124 -0.183156 -1.16278
v -4.40881 -0.635619 -1.49561
v -2.55288 -0.843214 -1.47613
v -2.55376 -0.945164 -1.73289
v -2.46097 -0.993101 -1.43267
v -2.55288 -0.843214 -1.47613
v -2.55376 -0.945164 -1.73289
v -2.66123 -0.945157 -1.7209
v -2.55288 -0.843214 -1.47613
v -3.14243 -0.467809 -1.29229
v -2.71063 -0.956622 -1.44404
v -2.55288 -0.843214 -1.47613
v -2.71063 -0.956622 -1.44404
v -2.46097 -0.993101 -1.43267
v -2.55288 -0.843214 -1.47613
v -2.71063 -0.956622 -1.44404
v -2.66123 -0.945157 -1.7209
v -2.55288 -0.843214 -1.47613
v -2.46097 -0.993101 -1.43267
v -2.66123 -0.945157 -1.7209
v 5.94897 -0.587974 1.80246
v 5.59242 -0.311278 1.98913
v 5.93365 -0.277686 1.81286
v 5.94897 -0.587974 1.80246
v 5.59242 -0.311278 1.98913
v 5.76011 -0.706951 1.80261
v 5.94897 -0.587974 1.80246
v 5.93365 -0.277686 1.81286
v 5.98747 -0.576032 1.65424
v 5.94897 -0.587974 1.80246
v 5.76011 -0.706951 1.80261
v 5.98747 -0.576032 1.65424
v -1.53901 -0.786287 -1.2556
v -1.87432 -0.0873502 -1.37701
v -1.90651 -0.791682 -1.41834
v -1.53901 -0.786287 -1.2556
v -1.44049 -1.27919 -0.978097
v -1.90651 -0.791682 -1.41834
v -1.53901 -0.786287 -1.2556
v -1.44049 -1.27919 -0.978097
v -0.539272 -1.09163 -1.4352
v -1.53901 -0.786287 -1.2556
v -0.644356 0.324296 -1.37441
v -0.539272 -1.09163 -1.4352
v -3.27454 -1.46327 -2.20035
v -3.48386 -1.34533 -1.36569
v -3.13883 -1.52015 -1.68411
v -3.27454 -1.46327 -2.20035
v -3.48386 -1.34533 -1.36569
v -3.30556 -1.48878 -2.6596
v -3.27454 -1.46327 -2.20035
v -3.13883 -1.52015 -1.68411
v -2.99564 -1.50029 -2.52052
v -3.27454 -1.46327 -2.20035
v -3.18297 -1.57806 -2.70923
v -2.99564 -1.50029 -2.52052
v -3.27454 -1.46327 -2.20035
v -3.18297 -1.57806 -2.70923
v -3.30556 -1.48878 -2.6596
v 5.31265 -0.78679 1.71754
v 5.25236 -0.564098 2.28369
v 5.76011 -0.706951 1.80261
v 5.31265 -0.78679 1.71754
v 5.25236 -0.564098 2.28369
v 4.88031 -1.05725 2.41128
v 5.31265 -0.78679 1.71754
v 4.77193 -1.03116 2.10129
v 5.46774 -0.729348 1.34773
v 5.31265 -0.78679 1.71754
v 4.77193 -1.03116 2.10129
v 4.88031 -1.05725 2.41128
v 5.31265 -0.78679 1.71754
v 5.46774 -0.729348 1.34773
v 5.81336 -0.787936 1.51655
v 5.31265 -0.78679 1.71754
v 5.76011 -0.706951 1.80261
v 5.81336 -0.787936 1.51655
v 5.59242 -0.311278 1.98913
v 5.25236 -0.564098 2.28369
v 5.76011 -0.706951 1.80261
v 5.59242 -0.311278 1.98913
v 5.25236 -0.564098 2.28369
v 5.15673 -0.221777 2.35689
v 5.59242 -0.311278 1.98913
v 5.93365 -0.277686 1.81286
v 5.33207 -0.0745572 1.75178
v 5.59242 -0.311278 1.98913
v 5.33207 -0.0745572 1.75178
v 5.15673 -0.221777 2.35689
v 1.65179 -1.24474 -2.04901
v 1.74064 -1.35422 -2.21991
v 1.40061 -1.21572 -1.13251
v 1.65179 -1.24474 -2.04901
v 1.74064 -1.35422 -2.21991
v 1.76836 -1.41013 -2.66677
v 1.65179 -1.24474 -2.04901
v 1.62452 -1.06526 -1.17188
v 1.93081 -1.14581 -2.40586
v 1.65179 -1.24474 -2.04901
v 1.62452 -1.06526 -1.17188
v 1.40061 -1.21572 -1.13251
v 1.65179 -1.24474 -2.04901
v 1.93081 -1.14581 -2.40586
v 1.82497 -1.16224 -2.7153
v 1.65179 -1.24474 -2.04901
v 1.76836 -1.41013 -2.66677
v 1.82497 -1.16224 -2.7153
v -1.61831 0.317467 -1.08984
v -1.9892 0.108829 -1.38428
v -1.87432 -0.0873502 -1.37701
v -1.61831 0.317467 -1.08984
v -1.9892 0.108829 -1.38428
v -2.57978 0.503925 -1.04554
v 4.06622 -1.26014 2.68599
v 4.20282 -1.59832 2.89847
v 4.23494 -1.10498 2.71591
v 4.06622 -1.26014 2.68599
v 4.20282 -1.59832 2.89847
v 4.01583 -1.33612 2.48658
v 4.06622 -1.26014 2.68599
v 4.23494 -1.10498 2.71591
v 3.81358 -0.830359 2.66607
v 4.06622 -1.26014 2.68599
v 4.01583 -1.33612 2.48658
v 3.81358 -0.830359 2.66607
v 5.758 -0.511112 1.29504
v 5.98211 -0.267709 1.57947
v 5.98747 -0.576032 1.65424
v 5.758 -0.511112 1.29504
v 5.98211 -0.267709 1.57947
v 5.78845 -0.149172 1.39656
v 5.758 -0.511112 1.29504
v 5.46774 -0.729348 1.34773
v 5.81336 -0.787936 1.51655
v 5.758 -0.511112 1.29504
v 5.46774 -0.729348 1.34773
v 5.78845 -0.149172 1.39656
v 5.758 -0.511112 1.29504
v 5.81336 -0.787936 1.51655
v 5.98747 -0.576032 1.65424
v 2.06055 0.403548 -1.12344
v 1.99169 0.173393 -1.13956
v 1.83658 0.251416 -2.29188
v 2.06055 0.403548 -1.12344
v 1.99169 0.173393 -1.13956
v 2.34833 0.555049 -0.314282
v 2.06055 0.403548 -1.12344
v 1.83658 0.251416 -2.29188
v 1.96649 0.431404 -2.3365
v 2.06055 0.403548 -1.12344
v 1.96649 0.431404 -2.3365
v 1.97043 0.670706 -0.856534
v 2.06055 0.403548 -1.12344
v 1.97043 0.670706 -0.856534
v 2.34833 0.555049 -0.314282
v 2.71935 0.0852861 1.46576
v 3.60271 -0.0122983 0.992007
v 2.86503 0.232455 0.543382
v 2.71935 0.0852861 1.46576
v 3.60271 -0.0122983 0.992007
v 4.32673 0.174555 1.60099
v 2.71935 0.0852861 1.46576
v 2.6146 0.681544 0.597096
v 2.86503 0.232455 0.543382
v 2.71935 0.0852861 1.46576
v 2.6146 0.681544 0.597096
v 2.16385 0.0676309 2.04817
v 2.71935 0.0852861 1.46576
v 2.95983 -0.226255 2.28959
v 2.16385 0.0676309 2.04817
v 2.71935 0.0852861 1.46576
v 2.95983 -0.226255 2.28959
v 4.32673 0.174555 1.60099
v 0.88856 0.824715 0.204162
v 0.951762 0.441775 -0.723217
v 1.29805 0.496889 -0.655773
v 0.88856 0.824715 0.204162
v 0.951762 0.441775 -0.723217
v -0.420369 1.19582 -0.605748
v 0.88856 0.824715 0.204162
v 1.04945 0.666047 1.05735
v -0.8207 1.27746 0.44699
v 0.88856 0.824715 0.204162
v 1.04945 0.666047 1.05735
v 1.87402 0.913469 0.195577
v 0.88856 0.824715 0.204162
v -0.8207 1.27746 0.44699
v -0.420369 1.19582 -0.605748
v -2.01044 -0.99412 -1.38076
v -2.16285 -0.876118 -1.45901
v -1.90651 -0.791682 -1.41834
v -2.01044 -0.99412 -1.38076
v -2.16285 -0.876118 -1.45901
v -2.1029 -0.89367 -1.70776
v -2.01044 -0.99412 -1.38076
v -2.16285 -0.876118 -1.45901
v -2.57684 -1.32352 -1.13828
v -2.01044 -0.99412 -1.38076
v -1.44049 -1.27919 -0.978097
v -1.90651 -0.791682 -1.41834
v -2.01044 -0.99412 -1.38076
v -1.44049 -1.27919 -0.978097
v -2.57684 -1.32352 -1.13828
v -2.01044 -0.99412 -1.38076
v -1.90651 -0.791682 -1.41834
v -2.1029 -0.89367 -1.70776
v -2.7831 0.274821 -1.34408
v -2.70558 0.0973407 -1.44413
v -2.46191 0.115365 -1.43227
v -2.7831 0.274821 -1.34408
v -2.57978 0.503925 -1.04554
v -2.46191 0.115365 -1.43227
v -2.7831 0.274821 -1.34408
v -2.57978 0.503925 -1.04554
v -2.98993 0.577971 -1.57229
v -2.7831 0.274821 -1.34408
v -3.05709 0.413157 -1.83442
v -2.98993 0.577971 -1.57229
v 4.00358 -0.729711 2.87832
v 3.46175 -0.452623 2.63271
v 3.94325 -0.163226 2.85015
v 4.00358 -0.729711 2.87832
v 4.21208 -1.02767 2.76074
v 4.25852 -1.25941 3.10424
v 4.00358 -0.729711 2.87832
v 4.21208 -1.02767 2.76074
v 3.81358 -0.830359 2.66607
v 4.00358 -0.729711 2.87832
v 3.94325 -0.163226 2.85015
v 4.25852 -1.25941 3.10424
v 1.47785 -1.58308 -0.674329
v 1.74064 -1.35422 -2.21991
v 2.02083 -1.44779 -1.13548
v 1.47785 -1.58308 -0.674329
v 1.74064 -1.35422 -2.21991
v 1.40061 -1.21572 -1.13251
v 1.47785 -1.58308 -0.674329
v 2.02083 -1.44779 -1.13548
v 1.96382 -1.79813 0.204726
v 1.47785 -1.58308 -0.674329
v 1.40061 -1.21572 -1.13251
v 1.25036 -1.37562 -0.535216
v 1.47785 -1.58308 -0.674329
v 1.96382 -1.79813 0.204726
v 1.25036 -1.37562 -0.535216
v -2.80071 -1.63065 1.46486
v -3.51597 -1.2708 0.744143
v -3.35041 -1.06474 2.17001
v -2.80071 -1.63065 1.46486
v -3.51597 -1.2708 0.744143
v -2.94332 -1.62466 -1.11148
v -2.80071 -1.63065 1.46486
v -1.96345 -1.82583 0.219936
v -1.74267 -1.46056 1.94803
v -2.80071 -1.63065 1.46486
v -1.96345 -1.82583 0.219936
v -2.94332 -1.62466 -1.11148
v -2.80071 -1.63065 1.46486
v -1.74267 -1.46056 1.94803
v -3.35041 -1.06474 2.17001
v 4.95694 0.117387 2.27254
v 5.33207 -0.0745572 1.75178
v 5.15673 -0.221777 2.35689
v 4.95694 0.117387 2.27254
v 5.33207 -0.0745572 1.75178
v 4.32673 0.174555 1.60099
v 4.95694 0.117387 2.27254
v 5.15673 -0.221777 2.35689
v 4.92371 0.188124 2.42036
v 4.95694 0.117387 2.27254
v 4.92371 0.188124 2.42036
v 4.32673 0.174555 1.60099
v -3.48386 -1.34533 -1.36569
v -3.13883 -1.52015 -1.68411
v -2.94332 -1.62466 -1.11148
v -3.48386 -1.34533 -1.36569
v -3.50073 -1.18284 -1.35795
v -3.21845 -1.3331 -0.634659
v -3.48386 -1.34533 -1.36569
v -3.50073 -1.18284 -1.35795
v -3.30556 -1.48878 -2.6596
v -3.48386 -1.34533 -1.36569
v -3.21845 -1.3331 -0.634659
v -2.94332 -1.62466 -1.11148
v 5.87101 -0.268101 1.62285
v 5.79088 -0.116799 1.62144
v 5.98211 -0.267709 1.57947
v -3.38742 0.219621 -1.06876
v -3.14243 -0.467809 -1.29229
v -3.64345 0.139993 -0.729846
v -3.38742 0.219621 -1.06876
v -3.23412 0.443422 -0.704446
v -3.52389 0.396405 -1.41834
v -3.38742 0.219621 -1.06876
v -3.23412 0.443422 -0.704446
v -3.64345 0.139993 -0.729846
v -3.38742 0.219621 -1.06876
v -3.52389 0.396405 -1.41834
v -3.05709 0.413157 -1.83442
v -3.31935 0.436508 -2.73731
v -3.18857 0.467983 -2.78161
v -3.14083 0.385814 -2.53225
v -3.31935 0.436508 -2.73731
v -3.18857 0.467983 -2.78161
v -3.22672 0.699076 -2.71325
v -3.31935 0.436508 -2.73731
v -3.32748 0.582109 -2.26334
v -3.14083 0.385814 -2.53225
v -3.31935 0.436508 -2.73731
v -3.32748 0.582109 -2.26334
v -3.22672 0.699076 -2.71325
v 0.951762 0.441775 -0.723217
v 1.09577 0.113023 -1.00263
v 1.29805 0.496889 -0.655773
v 0.951762 0.441775 -0.723217
v 1.09577 0.113023 -1.00263
v -0.644356 0.324296 -1.37441
v 0.951762 0.441775 -0.723217
v -0.420369 1.19582 -0.605748
v -0.644356 0.324296 -1.37441
v -1.0847 -1.30115 1.70062
v 0.796407 -1.50388 1.14597
v 0.289322 -0.881771 1.9158
v -1.0847 -1.30115 1.70062
v 0.796407 -1.50388 1.14597
v -0.729298 -2.15086 0.393561
v -1.0847 -1.30115 1.70062
v 0.289322 -0.881771 1.9158
v -1.74267 -1.46056 1.94803
v -1.0847 -1.30115 1.70062
v -0.729298 -2.15086 0.393561
v -1.74267 -1.46056 1.94803
v 4.50022 0.323654 2.93165
v 4.50067 0.496272 2.95639
v 4.88155 0.419847 3.03275
v 4.50022 0.323654 2.93165
v 4.50067 0.496272 2.95639
v 4.44806 0.0316476 2.75888
v 4.50022 0.323654 2.93165
v 4.88155 0.419847 3.03275
v 4.57959 0.362666 3.14204
v 4.50022 0.323654 2.93165
v 4.44806 0.0316476 2.75888
v 4.4301 -0.0200858 2.92412
v 4.50022 0.323654 2.93165
v 4.57959 0.362666 3.14204
v 4.4301 -0.0200858 2.92412
v 2.70225 -0.958342 1.51695
v 2.79582 -1.16973 0.555095
v 2.59514 -1.56845 0.497804
v 2.70225 -0.958342 1.51695
v 2.79582 -1.16973 0.555095
v 3.41262 -0.924025 0.851519
v 2.70225 -0.958342 1.51695
v 2.59514 -1.56845 0.497804
v 2.12543 -1.00923 2.0387
v 2.70225 -0.958342 1.51695
v 2.59317 -0.590647 2.2602
v 2.12543 -1.00923 2.0387
v -3.71506 -0.723535 2.03275
v -3.70813 -0.927445 1.74016
v -3.52285 0.381337 0.816442
v -3.71506 -0.723535 2.03275
v -3.70813 -0.927445 1.74016
v -3.35041 -1.06474 2.17001
v -3.71506 -0.723535 2.03275
v -3.52285 0.381337 0.816442
v -3.72148 -0.0754615 1.98849
v -3.23556 -1.26827 -2.03483
v -3.50073 -1.18284 -1.35795
v -2.88271 -1.12173 -1.36031
v -3.23556 -1.26827 -2.03483
v -3.50073 -1.18284 -1.35795
v -3.30556 -1.48878 -2.6596
v -3.23556 -1.26827 -2.03483
v -2.96913 -1.35523 -1.63797
v -2.96457 -1.36636 -2.54945
v -3.23556 -1.26827 -2.03483
v -2.96913 -1.35523 -1.63797
v -2.88271 -1.12173 -1.36031
v -3.23556 -1.26827 -2.03483
v -3.29175 -1.28276 -2.747
v -2.96457 -1.36636 -2.54945
v -3.23556 -1.26827 -2.03483
v -3.29175 -1.28276 -2.747
v -3.30556 -1.48878 -2.6596
v 4.26148 0.18523 3.09718
v 4.57959 0.362666 3.14204
v 4.2444 0.395819 3.07806
v 4.26148 0.18523 3.09718
v 4.57959 0.362666 3.14204
v 4.4301 -0.0200858 2.92412
v 4.26148 0.18523 3.09718
v 4.29124 -0.143004 3.04284
v 4.2444 0.395819 3.07806
v 4.26148 0.18523 3.09718
v 4.29124 -0.143004 3.04284
v 4.4301 -0.0200858 2.92412
v 3.46175 -0.452623 2.63271
v 3.79659 -0.0389078 2.59164
v 2.95983 -0.226255 2.28959
v 3.46175 -0.452623 2.63271
v 3.79659 -0.0389078 2.59164
v 3.94325 -0.163226 2.85015
v 3.46175 -0.452623 2.63271
v 2.95983 -0.226255 2.28959
v 2.59317 -0.590647 2.2602
v 4.20282 -1.59832 2.89847
v 4.23494 -1.10498 2.71591
v 4.30247 -1.40284 2.76803
v 4.20282 -1.59832 2.89847
v 4.07953 -1.89136 2.75476
v 4.01583 -1.33612 2.48658
v 4.20282 -1.59832 2.89847
v 4.07953 -1.89136 2.75476
v 4.30247 -1.40284 2.76803
v -3.69164 -0.316374 2.1825
v -3.82906 -0.309549 1.81515
v -3.87237 -0.533761 1.86546
v -3.69164 -0.316374 2.1825
v -3.82906 -0.309549 1.81515
v -3.42302 -0.341531 2.22996
v -3.69164 -0.316374 2.1825
v -3.40531 -0.291025 2.34783
v -3.42302 -0.341531 2.22996
v -3.69164 -0.316374 2.1825
v -3.40531 -0.291025 2.34783
v -3.66406 -0.552263 2.2349
v -3.69164 -0.316374 2.1825
v -3.87237 -0.533761 1.86546
v -3.66406 -0.552263 2.2349
v -3.38592 -0.490962 2.45136
v -3.40531 -0.291025 2.34783
v -3.66406 -0.552263 2.2349
v -3.38592 -0.490962 2.45136
v -3.40531 -0.291025 2.34783
v -2.81106 -0.492389 2.37102
v -3.38592 -0.490962 2.45136
v -3.40261 -0.576473 2.30852
v -3.66406 -0.552263 2.2349
v -3.38592 -0.490962 2.45136
v -3.40261 -0.576473 2.30852
v -2.81106 -0.492389 2.37102
v 5.79088 -0.116799 1.62144
v 5.98211 -0.267709 1.57947
v 5.78845 -0.149172 1.39656
v 5.79088 -0.116799 1.62144
v 5.33207 -0.0745572 1.75178
v 5.78845 -0.149172 1.39656
v 2.93698 -0.11558 -0.510085
v 2.78967 -0.048077 -1.02673
v 3.0443 -0.6624 -0.304049
v 2.93698 -0.11558 -0.510085
v 2.78967 -0.048077 -1.02673
v 2.34833 0.555049 -0.314282
v 2.93698 -0.11558 -0.510085
v 2.86503 0.232455 0.543382
v 4.09923 -0.269833 1.05814
v 2.93698 -0.11558 -0.510085
v 2.86503 0.232455 0.543382
v 2.34833 0.555049 -0.314282
v 2.93698 -0.11558 -0.510085
v 3.0443 -0.6624 -0.304049
v 4.09923 -0.269833 1.05814
v -1.9892 0.108829 -1.38428
v -1.94224 -0.000150212 -1.63488
v -1.87432 -0.0873502 -1.37701
v -1.9892 0.108829 -1.38428
v -1.94224 -0.000150212 -1.63488
v -2.07785 0.0252597 -1.70866
v -1.9892 0.108829 -1.38428
v -1.87432 -0.0873502 -1.37701
v -2.07785 0.0252597 -1.70866
v -1.9892 0.108829 -1.38428
v -1.87432 -0.0873502 -1.37701
v -2.15842 -0.019478 -1.46923
v -1.9892 0.108829 -1.38428
v -2.57978 0.503925 -1.04554
v -2.46191 0.115365 -1.43227
v -1.9892 0.108829 -1.38428
v -2.46191 0.115365 -1.43227
v -2.15842 -0.019478 -1.46923
v -1.9892 0.108829 -1.38428
v -2.07785 0.0252597 -1.70866
v -2.15842 -0.019478 -1.46923
v 1.98206 -1.12368 -3.0693
v 1.89413 -1.52555 -3.08437
v 2.23978 -1.12364 -3.1149
v 1.98206 -1.12368 -3.0693
v 1.89413 -1.52555 -3.08437
v 1.82497 -1.16224 -2.7153
v 1.98206 -1.12368 -3.0693
v 2.23978 -1.12364 -3.1149
v 1.82497 -1.16224 -2.7153
v 2.23 0.820292 -3.101
v 1.9391 0.717139 -3.10237
v 1.78643 0.543616 -2.68062
v 2.23 0.820292 -3.101
v 1.9391 0.717139 -3.10237
v 1.98167 0.281293 -3.13502
v 2.23 0.820292 -3.101
v 1.78643 0.543616 -2.68062
v 1.96649 0.431404 -2.3365
v 2.23 0.820292 -3.101
v 1.78643 0.543616 -2.68062
v 1.98167 0.281293 -3.13502
v 0.445786 -0.0543261 1.961
v 1.04945 0.666047 1.05735
v 2.16385 0.0676309 2.04817
v 0.445786 -0.0543261 1.961
v 1.04945 0.666047 1.05735
v -1.60562 0.494485 1.96967
v 0.445786 -0.0543261 1.961
v -2.81106 -0.492389 2.37102
v -1.60562 0.494485 1.96967
v 4.69949 0.549348 3.17543
v 4.50067 0.496272 2.95639
v 4.88155 0.419847 3.03275
v 4.69949 0.549348 3.17543
v 4.50067 0.496272 2.95639
v 4.2444 0.395819 3.07806
v 4.69949 0.549348 3.17543
v 4.88155 0.419847 3.03275
v 4.57959 0.362666 3.14204
v 4.69949 0.549348 3.17543
v 4.57959 0.362666 3.14204
v 4.2444 0.395819 3.07806
v 5.25236 -0.564098 2.28369
v 4.88031 -1.05725 2.41128
v 4.88676 -0.990562 2.62726
v 5.25236 -0.564098 2.28369
v 5.15673 -0.221777 2.35689
v 4.88676 -0.990562 2.62726
v 0.796407 -1.50388 1.14597
v 0.289322 -0.881771 1.9158
v 2.12543 -1.00923 2.0387
v 0.796407 -1.50388 1.14597
v 0.869429 -1.74311 0.181541
v -0.729298 -2.15086 0.393561
v 0.796407 -1.50388 1.14597
v 0.869429 -1.74311 0.181541
v 1.96382 -1.79813 0.204726
v 0.796407 -1.50388 1.14597
v 2.12543 -1.00923 2.0387
v 1.96382 -1.79813 0.204726
v 1.04945 0.666047 1.05735
v -0.8207 1.27746 0.44699
v -1.60562 0.494485 1.96967
v 1.04945 0.666047 1.05735
v 1.87402 0.913469 0.195577
v 2.16385 0.0676309 2.04817
v -1.98905 0.553633 -0.41503
v -1.16551 1.09479 -0.686618
v -1.98165 0.95675 0.165244
v -1.98905 0.553633 -0.41503
v -2.57978 0.503925 -1.04554
v -1.98165 0.95675 0.165244
v -1.97232 -1.45481 -0.407899
v -1.44049 -1.27919 -0.978097
v -0.910338 -2.03675 -0.772449
v -1.97232 -1.45481 -0.407899
v -1.44049 -1.27919 -0.978097
v -2.57684 -1.32352 -1.13828
v -1.97232 -1.45481 -0.407899
v -1.96345 -1.82583 0.219936
v -0.910338 -2.03675 -0.772449
v -1.97232 -1.45481 -0.407899
v -1.96345 -1.82583 0.219936
v -2.57684 -1.32352 -1.13828
v 3.60271 -0.0122983 0.992007
v 2.86503 0.232455 0.543382
v 4.09923 -0.269833 1.05814
v 3.60271 -0.0122983 0.992007
v 4.32673 0.174555 1.60099
v 4.09923 -0.269833 1.05814
v -3.18857 0.467983 -2.78161
v -3.14995 0.756871 -3.10018
v -3.22672 0.699076 -2.71325
v -3.18857 0.467983 -2.78161
v -3.14995 0.756871 -3.10018
v -2.94801 0.378381 -3.18249
v -3.18857 0.467983 -2.78161
v -3.14083 0.385814 -2.53225
v -2.94801 0.378381 -3.18249
v 4.50067 0.496272 2.95639
v 4.44806 0.0316476 2.75888
v 4.21621 0.161973 2.72674
v 4.50067 0.496272 2.95639
v 4.2444 0.395819 3.07806
v 4.21621 0.161973 2.72674
v 4.8616 -0.0717318 1.26673
v 5.33207 -0.0745572 1.75178
v 4.32673 0.174555 1.60099
v 4.8616 -0.0717318 1.26673
v 5.33207 -0.0745572 1.75178
v 5.78845 -0.149172 1.39656
v 4.8616 -0.0717318 1.26673
v 4.32673 0.174555 1.60099
v 4.09923 -0.269833 1.05814
v 4.8616 -0.0717318 1.26673
v 5.78845 -0.149172 1.39656
v 4.09923 -0.269833 1.05814
v 1.68832 0.439905 -2.16657
v 1.51421 0.425854 -1.62754
v 1.83658 0.251416 -2.29188
v 1.68832 0.439905 -2.16657
v 1.51421 0.425854 -1.62754
v 1.97043 0.670706 -0.856534
v 1.68832 0.439905 -2.16657
v 1.78643 0.543616 -2.68062
v 1.73566 0.267017 -2.6657
v 1.68832 0.439905 -2.16657
v 1.78643 0.543616 -2.68062
v 1.96649 0.431404 -2.3365
v 1.68832 0.439905 -2.16657
v 1.73566 0.267017 -2.6657
v 1.83658 0.251416 -2.29188
v 1.68832 0.439905 -2.16657
v 1.83658 0.251416 -2.29188
v 1.96649 0.431404 -2.3365
v 1.68832 0.439905 -2.16657
v 1.96649 0.431404 -2.3365
v 1.97043 0.670706 -0.856534
v 3.79659 -0.0389078 2.59164
v 4.11942 0.424567 2.7442
v 4.00928 0.437489 2.4821
v 3.79659 -0.0389078 2.59164
v 4.11942 0.424567 2.7442
v 3.94325 -0.163226 2.85015
v 3.79659 -0.0389078 2.59164
v 2.95983 -0.226255 2.28959
v 4.05624 0.0831321 2.30244
v 3.79659 -0.0389078 2.59164
v 4.05624 0.0831321 2.30244
v 4.00928 0.437489 2.4821
v -1.94224 -0.000150212 -1.63488
v -1.87432 -0.0873502 -1.37701
v -2.07785 0.0252597 -1.70866
v 2.6146 0.681544 0.597096
v 2.86503 0.232455 0.543382
v 2.34833 0.555049 -0.314282
v 2.6146 0.681544 0.597096
v 1.87402 0.913469 0.195577
v 2.16385 0.0676309 2.04817
v 2.6146 0.681544 0.597096
v 1.87402 0.913469 0.195577
v 2.34833 0.555049 -0.314282
v -3.13883 -1.52015 -1.68411
v -2.96913 -1.35523 -1.63797
v -2.96457 -1.36636 -2.54945
v -3.13883 -1.52015 -1.68411
v -2.96913 -1.35523 -1.63797
v -2.94332 -1.62466 -1.11148
v -3.13883 -1.52015 -1.68411
v -2.99564 -1.50029 -2.52052
v -2.96457 -1.36636 -2.54945
v 4.36565 -1.31982 2.92245
v 4.21208 -1.02767 2.76074
v 4.25852 -1.25941 3.10424
v 4.36565 -1.31982 2.92245
v 4.21208 -1.02767 2.76074
v 4.45494 -1.17931 2.89787
v 4.36565 -1.31982 2.92245
v 4.25852 -1.25941 3.10424
v 4.83037 -1.39068 3.11158
v 4.36565 -1.31982 2.92245
v 4.45494 -1.17931 2.89787
v 4.83037 -1.39068 3.11158
v 0.289322 -0.881771 1.9158
v -1.74267 -1.46056 1.94803
v -2.81106 -0.492389 2.37102
v -3.53963 -0.36961 -0.843809
v -3.75415 -0.321703 0.290218
v -3.6596 -0.468259 0.523149
v -3.50073 -1.18284 -1.35795
v -3.39479 -1.10507 -1.06448
v -3.21845 -1.3331 -0.634659
v -3.50073 -1.18284 -1.35795
v -3.39479 -1.10507 -1.06448
v -2.88271 -1.12173 -1.36031
v -3.51597 -1.2708 0.744143
v -3.70813 -0.927445 1.74016
v -3.50242 -0.953975 0.443299
v -3.51597 -1.2708 0.744143
v -3.70813 -0.927445 1.74016
v -3.35041 -1.06474 2.17001
v -3.51597 -1.2708 0.744143
v -3.50242 -0.953975 0.443299
v -3.21845 -1.3331 -0.634659
v -3.51597 -1.2708 0.744143
v -3.21845 -1.3331 -0.634659
v -2.94332 -1.62466 -1.11148
v 5.93365 -0.277686 1.81286
v 5.98211 -0.267709 1.57947
v 5.98747 -0.576032 1.65424
v 4.11942 0.424567 2.7442
v 4.11738 0.953756 2.83889
v 4.00928 0.437489 2.4821
v 4.11942 0.424567 2.7442
v 4.11738 0.953756 2.83889
v 4.34094 0.481239 2.80284
v 4.11942 0.424567 2.7442
v 3.94325 -0.163226 2.85015
v 4.21621 0.161973 2.72674
v 4.11942 0.424567 2.7442
v 4.34094 0.481239 2.80284
v 4.21621 0.161973 2.72674
v 2.79582 -1.16973 0.555095
v 2.59514 -1.56845 0.497804
v 2.69591 -0.798468 -1.13454
v 2.79582 -1.16973 0.555095
v 3.41262 -0.924025 0.851519
v 3.0443 -0.6624 -0.304049
v 2.79582 -1.16973 0.555095
v 3.0443 -0.6624 -0.304049
v 2.69591 -0.798468 -1.13454
v -3.70813 -0.927445 1.74016
v -3.50242 -0.953975 0.443299
v -3.52321 0.0248335 0.568144
v -3.70813 -0.927445 1.74016
v -3.52285 0.381337 0.816442
v -3.52321 0.0248335 0.568144
v 4.13906 -0.697474 1.10932
v 5.46774 -0.729348 1.34773
v 4.09923 -0.269833 1.05814
v 4.13906 -0.697474 1.10932
v 5.46774 -0.729348 1.34773
v 4.28114 -1.08308 1.6926
v 4.13906 -0.697474 1.10932
v 3.41262 -0.924025 0.851519
v 3.0443 -0.6624 -0.304049
v 4.13906 -0.697474 1.10932
v 3.41262 -0.924025 0.851519
v 4.28114 -1.08308 1.6926
v 4.13906 -0.697474 1.10932
v 3.0443 -0.6624 -0.304049
v 4.09923 -0.269833 1.05814
v 2.2501 -1.43112 -0.471576
v 2.59514 -1.56845 0.497804
v 1.96382 -1.79813 0.204726
v 2.2501 -1.43112 -0.471576
v 2.59514 -1.56845 0.497804
v 2.69591 -0.798468 -1.13454
v 2.2501 -1.43112 -0.471576
v 2.02083 -1.44779 -1.13548
v 1.99551 -1.0213 -1.14451
v 2.2501 -1.43112 -0.471576
v 2.02083 -1.44779 -1.13548
v 1.96382 -1.79813 0.204726
v 2.2501 -1.43112 -0.471576
v 1.99551 -1.0213 -1.14451
v 2.69591 -0.798468 -1.13454
v -3.39479 -1.10507 -1.06448
v -3.66629 -0.99096 -0.588884
v -3.21845 -1.3331 -0.634659
v -3.39479 -1.10507 -1.06448
v -3.66629 -0.99096 -0.588884
v -3.64345 0.139993 -0.729846
v -3.39479 -1.10507 -1.06448
v -3.14243 -0.467809 -1.29229
v -3.64345 0.139993 -0.729846
v -3.39479 -1.10507 -1.06448
v -3.14243 -0.467809 -1.29229
v -2.88271 -1.12173 -1.36031
v 4.77193 -1.03116 2.10129
v 5.46774 -0.729348 1.34773
v 4.28114 -1.08308 1.6926
v 4.77193 -1.03116 2.10129
v 4.88031 -1.05725 2.41128
v 4.88676 -0.990562 2.62726
v 4.77193 -1.03116 2.10129
v 4.31477 -0.990363 2.42307
v 4.28114 -1.08308 1.6926
v 4.77193 -1.03116 2.10129
v 4.31477 -0.990363 2.42307
v 4.88676 -0.990562 2.62726
v 1.09577 0.113023 -1.00263
v 1.29805 0.496889 -0.655773
v 1.47408 0.247247 -1.15076
v 1.09577 0.113023 -1.00263
v -0.644356 0.324296 -1.37441
v -0.539272 -1.09163 -1.4352
v 1.09577 0.113023 -1.00263
v -0.539272 -1.09163 -1.4352
v 1.07311 -0.792952 -1.10526
v 1.09577 0.113023 -1.00263
v 1.07311 -0.792952 -1.10526
v 1.47408 0.247247 -1.15076
v 1.74064 -1.35422 -2.21991
v 2.02083 -1.44779 -1.13548
v 1.95739 -1.22779 -2.09118
v 1.74064 -1.35422 -2.21991
v 2.10865 -1.35349 -2.56209
v 1.76836 -1.41013 -2.66677
v 1.74064 -1.35422 -2.21991
v 2.10865 -1.35349 -2.56209
v 1.95739 -1.22779 -2.09118
v -3.66629 -0.99096 -0.588884
v -3.50242 -0.953975 0.443299
v -3.21845 -1.3331 -0.634659
v -3.66629 -0.99096 -0.588884
v -3.50242 -0.953975 0.443299
v -3.52321 0.0248335 0.568144
v -3.66629 -0.99096 -0.588884
v -3.52321 0.0248335 0.568144
v -3.64345 0.139993 -0.729846
v 4.45367 -0.741716 2.915
v 4.29124 -0.143004 3.04284
v 4.4301 -0.0200858 2.92412
v 4.45367 -0.741716 2.915
v 4.45887 -1.19276 3.12041
v 4.45494 -1.17931 2.89787
v 4.45367 -0.741716 2.915
v 4.4301 -0.0200858 2.92412
v 4.88676 -0.990562 2.62726
v 1.29805 0.496889 -0.655773
v 1.48575 0.677148 -0.874174
v 1.47408 0.247247 -1.15076
v 1.9391 0.717139 -3.10237
v 1.78643 0.543616 -2.68062
v 1.98167 0.281293 -3.13502
v 5.46774 -0.729348 1.34773
v 5.78845 -0.149172 1.39656
v 4.09923 -0.269833 1.05814
v 1.48575 0.677148 -0.874174
v 1.51421 0.425854 -1.62754
v 1.97043 0.670706 -0.856534
v 1.48575 0.677148 -0.874174
v 1.51421 0.425854 -1.62754
v 1.47408 0.247247 -1.15076
v 1.48575 0.677148 -0.874174
v 1.87402 0.913469 0.195577
v 1.97043 0.670706 -0.856534
v -2.55376 -0.945164 -1.73289
v -2.46097 -0.993101 -1.43267
v -2.66123 -0.945157 -1.7209
v 4.90874 0.0836997 2.632
v 5.15673 -0.221777 2.35689
v 4.92371 0.188124 2.42036
v 4.90874 0.0836997 2.632
v 5.15673 -0.221777 2.35689
v 4.4301 -0.0200858 2.92412
v 4.90874 0.0836997 2.632
v 4.92371 0.188124 2.42036
v 4.28846 0.121961 2.39302
v 4.90874 0.0836997 2.632
v 4.44806 0.0316476 2.75888
v 4.28846 0.121961 2.39302
v 4.90874 0.0836997 2.632
v 4.44806 0.0316476 2.75888
v 4.4301 -0.0200858 2.92412
v -3.19092 -1.336 -2.77842
v -3.18297 -1.57806 -2.70923
v -3.29175 -1.28276 -2.747
v -3.19092 -1.336 -2.77842
v -3.18297 -1.57806 -2.70923
v -3.128 -1.67268 -3.13177
v -3.19092 -1.336 -2.77842
v -3.29175 -1.28276 -2.747
v -2.96457 -1.36636 -2.54945
v -3.19092 -1.336 -2.77842
v -2.96457 -1.36636 -2.54945
v -2.88937 -1.25007 -3.18529
v -3.19092 -1.336 -2.77842
v -2.88937 -1.25007 -3.18529
v -3.128 -1.67268 -3.13177
v 1.62452 -1.06526 -1.17188
v 1.93081 -1.14581 -2.40586
v 1.95739 -1.22779 -2.09118
v 1.62452 -1.06526 -1.17188
v 1.99551 -1.0213 -1.14451
v 1.95739 -1.22779 -2.09118
v 1.62452 -1.06526 -1.17188
v 1.99551 -1.0213 -1.14451
v 1.07311 -0.792952 -1.10526
v 1.62452 -1.06526 -1.17188
v 1.40061 -1.21572 -1.13251
v 1.07311 -0.792952 -1.10526
v -2.70558 0.0973407 -1.44413
v -2.59184 0.0801952 -1.75618
v -2.46191 0.115365 -1.43227
v 2.59514 -1.56845 0.497804
v 2.12543 -1.00923 2.0387
v 1.96382 -1.79813 0.204726
v -1.74489 0.630114 1.87459
v -1.98165 0.95675 0.165244
v -2.92276 0.66395 1.79985
v -1.74489 0.630114 1.87459
v -1.98165 0.95675 0.165244
v -1.60562 0.494485 1.96967
v -1.74489 0.630114 1.87459
v -2.92276 0.66395 1.79985
v -1.60562 0.494485 1.96967
v -3.14995 0.756871 -3.10018
v -2.90107 0.974177 -3.17774
v -3.22672 0.699076 -2.71325
v -3.14995 0.756871 -3.10018
v -2.90107 0.974177 -3.17774
v -2.94801 0.378381 -3.18249
v 5.76011 -0.706951 1.80261
v 5.81336 -0.787936 1.51655
v 5.98747 -0.576032 1.65424
v 2.95983 -0.226255 2.28959
v 4.05624 0.0831321 2.30244
v 4.32673 0.174555 1.60099
v 2.95983 -0.226255 2.28959
v 2.59317 -0.590647 2.2602
v 2.16385 0.0676309 2.04817
v 1.99169 0.173393 -1.13956
v 2.78967 -0.048077 -1.02673
v 2.69591 -0.798468 -1.13454
v 1.99169 0.173393 -1.13956
v 2.78967 -0.048077 -1.02673
v 2.34833 0.555049 -0.314282
v 1.99169 0.173393 -1.13956
v 1.83658 0.251416 -2.29188
v 1.47408 0.247247 -1.15076
v 1.99169 0.173393 -1.13956
v 1.07311 -0.792952 -1.10526
v 2.69591 -0.798468 -1.13454
v 1.99169 0.173393 -1.13956
v 1.07311 -0.792952 -1.10526
v 1.47408 0.247247 -1.15076
v -3.14243 -0.467809 -1.29229
v -2.71063 -0.956622 -1.44404
v -2.88271 -1.12173 -1.36031
v 4.11738 0.953756 2.83889
v 4.00928 0.437489 2.4821
v 4.14857 0.564129 2.24708
v 4.11738 0.953756 2.83889
v 4.18727 0.355817 2.46801
v 4.14857 0.564129 2.24708
v 4.11738 0.953756 2.83889
v 4.18727 0.355817 2.46801
v 4.34094 0.481239 2.80284
v 4.13789 -1.60078 2.27345
v 4.07953 -1.89136 2.75476
v 4.01583 -1.33612 2.48658
v 4.13789 -1.60078 2.27345
v 4.07953 -1.89136 2.75476
v 4.30247 -1.40284 2.76803
v 4.13789 -1.60078 2.27345
v 4.01583 -1.33612 2.48658
v 4.08084 -0.968236 2.30332
v 4.13789 -1.60078 2.27345
v 4.08084 -0.968236 2.30332
v 4.30247 -1.40284 2.76803
v 4.23494 -1.10498 2.71591
v 4.33431 -1.20597 2.49544
v 4.31477 -0.990363 2.42307
v 4.23494 -1.10498 2.71591
v 4.33431 -1.20597 2.49544
v 4.30247 -1.40284 2.76803
v 4.23494 -1.10498 2.71591
v 4.21208 -1.02767 2.76074
v 4.31477 -0.990363 2.42307
v 4.23494 -1.10498 2.71591
v 4.21208 -1.02767 2.76074
v 3.81358 -0.830359 2.66607
v 5.15673 -0.221777 2.35689
v 4.4301 -0.0200858 2.92412
v 4.88676 -0.990562 2.62726
v 4.92371 0.188124 2.42036
v 4.28846 0.121961 2.39302
v 4.32673 0.174555 1.60099
v -1.16551 1.09479 -0.686618
v -0.8207 1.27746 0.44699
v -0.420369 1.19582 -0.605748
v -1.16551 1.09479 -0.686618
v -0.8207 1.27746 0.44699
v -1.98165 0.95675 0.165244
v -1.16551 1.09479 -0.686618
v -0.420369 1.19582 -0.605748
v -0.644356 0.324296 -1.37441
v -2.16285 -0.876118 -1.45901
v -2.46097 -0.993101 -1.43267
v -2.57684 -1.32352 -1.13828
v -2.16285 -0.876118 -1.45901
v -1.90651 -0.791682 -1.41834
v -2.1029 -0.89367 -1.70776
v 4.44806 0.0316476 2.75888
v 4.28846 0.121961 2.39302
v 4.21621 0.161973 2.72674
v 4.33431 -1.20597 2.49544
v 4.31477 -0.990363 2.42307
v 4.08084 -0.968236 2.30332
v 4.33431 -1.20597 2.49544
v 4.08084 -0.968236 2.30332
v 4.30247 -1.40284 2.76803
v -3.52285 0.381337 0.816442
v -3.23412 0.443422 -0.704446
v -3.52321 0.0248335 0.568144
v -3.52285 0.381337 0.816442
v -3.72148 -0.0754615 1.98849
v -2.92276 0.66395 1.79985
v -3.18297 -1.57806 -2.70923
v -2.99564 -1.50029 -2.52052
v -2.61712 -1.79713 -3.09765
v -3.18297 -1.57806 -2.70923
v -3.29175 -1.28276 -2.747
v -3.30556 -1.48878 -2.6596
v -3.18297 -1.57806 -2.70923
v -2.61712 -1.79713 -3.09765
v -3.128 -1.67268 -3.13177
v 4.05624 0.0831321 2.30244
v 4.00928 0.437489 2.4821
v 4.14857 0.564129 2.24708
v 4.05624 0.0831321 2.30244
v 4.28846 0.121961 2.39302
v 4.18727 0.355817 2.46801
v 4.05624 0.0831321 2.30244
v 4.28846 0.121961 2.39302
v 4.32673 0.174555 1.60099
v 4.05624 0.0831321 2.30244
v 4.18727 0.355817 2.46801
v 4.14857 0.564129 2.24708
v 1.51421 0.425854 -1.62754
v 1.83658 0.251416 -2.29188
v 1.47408 0.247247 -1.15076
v -1.87432 -0.0873502 -1.37701
v -2.07785 0.0252597 -1.70866
v -2.15842 -0.019478 -1.46923
v -2.57978 0.503925 -1.04554
v -2.98993 0.577971 -1.57229
v -1.98165 0.95675 0.165244
v 0.869429 -1.74311 0.181541
v -0.729298 -2.15086 0.393561
v -0.910338 -2.03675 -0.772449
v 0.869429 -1.74311 0.181541
v 1.96382 -1.79813 0.204726
v 1.25036 -1.37562 -0.535216
v 0.869429 -1.74311 0.181541
v -0.910338 -2.03675 -0.772449
v 1.25036 -1.37562 -0.535216
v -3.23412 0.443422 -0.704446
v -3.52389 0.396405 -1.41834
v -3.05724 0.670346 -1.23617
v -3.23412 0.443422 -0.704446
v -3.52321 0.0248335 0.568144
v -3.64345 0.139993 -0.729846
v -2.96913 -1.35523 -1.63797
v -2.94332 -1.62466 -1.11148
v -2.57684 -1.32352 -1.13828
v -2.96913 -1.35523 -1.63797
v -2.57684 -1.32352 -1.13828
v -2.88271 -1.12173 -1.36031
v -3.82906 -0.309549 1.81515
v -3.83676 -0.461847 0.297547
v -3.87237 -0.533761 1.86546
v -3.82906 -0.309549 1.81515
v -3.83676 -0.461847 0.297547
v -3.75415 -0.321703 0.290218
v -3.82906 -0.309549 1.81515
v -3.87237 -0.533761 1.86546
v -3.67968 -0.474113 1.85268
v -3.82906 -0.309549 1.81515
v -3.42302 -0.341531 2.22996
v -3.67968 -0.474113 1.85268
v -3.82906 -0.309549 1.81515
v -3.67968 -0.474113 1.85268
v -3.75415 -0.321703 0.290218
v 1.78643 0.543616 -2.68062
v 1.95944 0.235569 -2.67272
v 1.73566 0.267017 -2.6657
v 1.78643 0.543616 -2.68062
v 1.95944 0.235569 -2.67272
v 1.96649 0.431404 -2.3365
v 1.78643 0.543616 -2.68062
v 1.95944 0.235569 -2.67272
v 1.98167 0.281293 -3.13502
v -3.40531 -0.291025 2.34783
v -3.34541 0.0208627 2.24025
v -2.81106 -0.492389 2.37102
v -3.34541 0.0208627 2.24025
v -3.72148 -0.0754615 1.98849
v -2.92276 0.66395 1.79985
v -3.34541 0.0208627 2.24025
v -2.81106 -0.492389 2.37102
v -1.60562 0.494485 1.96967
v -3.34541 0.0208627 2.24025
v -2.92276 0.66395 1.79985
v -1.60562 0.494485 1.96967
v -3.83676 -0.461847 0.297547
v -3.87237 -0.533761 1.86546
v -3.6596 -0.468259 0.523149
v -3.83676 -0.461847 0.297547
v -4.2124 -0.183156 -1.16278
v -3.75415 -0.321703 0.290218
v -3.83676 -0.461847 0.297547
v -4.2124 -0.183156 -1.16278
v -4.40881 -0.635619 -1.49561
v -3.83676 -0.461847 0.297547
v -3.75415 -0.321703 0.290218
v -3.6596 -0.468259 0.523149
v -3.87237 -0.533761 1.86546
v -3.67968 -0.474113 1.85268
v -3.66406 -0.552263 2.2349
v -3.87237 -0.533761 1.86546
v -3.67968 -0.474113 1.85268
v -3.6596 -0.468259 0.523149
v -3.52389 0.396405 -1.41834
v -3.05709 0.413157 -1.83442
v -3.14083 0.385814 -2.53225
v -3.52389 0.396405 -1.41834
v -3.32748 0.582109 -2.26334
v -3.14083 0.385814 -2.53225
v -3.52389 0.396405 -1.41834
v -3.32748 0.582109 -2.26334
v -3.05724 0.670346 -1.23617
v -2.99564 -1.50029 -2.52052
v -2.96457 -1.36636 -2.54945
v -2.61712 -1.79713 -3.09765
v 2.02083 -1.44779 -1.13548
v 1.99551 -1.0213 -1.14451
v 1.95739 -1.22779 -2.09118
v -2.71063 -0.956622 -1.44404
v -2.46097 -0.993101 -1.43267
v -2.66123 -0.945157 -1.7209
v -2.71063 -0.956622 -1.44404
v -2.46097 -0.993101 -1.43267
v -2.88271 -1.12173 -1.36031
v -0.729298 -2.15086 0.393561
v -1.96345 -1.82583 0.219936
v -1.74267 -1.46056 1.94803
v -0.729298 -2.15086 0.393561
v -1.96345 -1.82583 0.219936
v -0.910338 -2.03675 -0.772449
v 2.78967 -0.048077 -1.02673
v 3.0443 -0.6624 -0.304049
v 2.69591 -0.798468 -1.13454
v -1.44049 -1.27919 -0.978097
v -0.910338 -2.03675 -0.772449
v -0.539272 -1.09163 -1.4352
v -3.67968 -0.474113 1.85268
v -3.40261 -0.576473 2.30852
v -3.66406 -0.552263 2.2349
v -3.67968 -0.474113 1.85268
v -3.75415 -0.321703 0.290218
v -3.6596 -0.468259 0.523149
v -2.46097 -0.993101 -1.43267
v -2.57684 -1.32352 -1.13828
v -2.88271 -1.12173 -1.36031
v 1.95944 0.235569 -2.67272
v 1.73566 0.267017 -2.6657
v 1.83658 0.251416 -2.29188
v 1.95944 0.235569 -2.67272
v 1.83658 0.251416 -2.29188
v 1.96649 0.431404 -2.3365
v 1.93081 -1.14581 -2.40586
v 2.10865 -1.35349 -2.56209
v 1.95739 -1.22779 -2.09118
v 1.93081 -1.14581 -2.40586
v 2.10865 -1.35349 -2.56209
v 2.23978 -1.12364 -3.1149
v 1.93081 -1.14581 -2.40586
v 2.23978 -1.12364 -3.1149
v 1.82497 -1.16224 -2.7153
v -1.96345 -1.82583 0.219936
v -2.94332 -1.62466 -1.11148
v -2.57684 -1.32352 -1.13828
v 4.01583 -1.33612 2.48658
v 4.08084 -0.968236 2.30332
v 3.81358 -0.830359 2.66607
v -3.40261 -0.576473 2.30852
v -3.35041 -1.06474 2.17001
v -2.81106 -0.492389 2.37102
v 4.31477 -0.990363 2.42307
v 4.08084 -0.968236 2.30332
v 4.28114 -1.08308 1.6926
v 3.41262 -0.924025 0.851519
v 4.08084 -0.968236 2.30332
v 4.28114 -1.08308 1.6926
v 2.10865 -1.35349 -2.56209
v 2.35423 -1.6557 -3.04674
v 1.76836 -1.41013 -2.66677
v 2.10865 -1.35349 -2.56209
v 2.35423 -1.6557 -3.04674
v 2.23978 -1.12364 -3.1149
v -0.8207 1.27746 0.44699
v -1.98165 0.95675 0.165244
v -1.60562 0.494485 1.96967
v -1.74267 -1.46056 1.94803
v -3.35041 -1.06474 2.17001
v -2.81106 -0.492389 2.37102
v -2.90107 0.974177 -3.17774
v -3.01298 0.579757 -2.44568
v -3.22672 0.699076 -2.71325
v 1.89413 -1.52555 -3.08437
v 2.35423 -1.6557 -3.04674
v 1.76836 -1.41013 -2.66677
v 1.89413 -1.52555 -3.08437
v 2.35423 -1.6557 -3.04674
v 2.23978 -1.12364 -3.1149
v 1.89413 -1.52555 -3.08437
v 1.76836 -1.41013 -2.66677
v 1.82497 -1.16224 -2.7153
v 1.89413 -1.52555 -3.08437
v 2.23978 -1.12364 -3.1149
v 1.82497 -1.16224 -2.7153
v -2.96457 -1.36636 -2.54945
v -2.54057 -1.43594 -3.11256
v -2.88937 -1.25007 -3.18529
v -2.96457 -1.36636 -2.54945
v -2.54057 -1.43594 -3.11256
v -2.61712 -1.79713 -3.09765
v -2.96457 -1.36636 -2.54945
v -2.88937 -1.25007 -3.18529
v -2.61712 -1.79713 -3.09765
v 3.94325 -0.163226 2.85015
v 4.2444 0.395819 3.07806
v 4.21621 0.161973 2.72674
v 1.87402 0.913469 0.195577
v 1.97043 0.670706 -0.856534
v 2.34833 0.555049 -0.314282
v -3.01298 0.579757 -2.44568
v -3.32748 0.582109 -2.26334
v -3.14083 0.385814 -2.53225
v -3.01298 0.579757 -2.44568
v -3.32748 0.582109 -2.26334
v -3.22672 0.699076 -2.71325
v -3.01298 0.579757 -2.44568
v -3.32748 0.582109 -2.26334
v -2.98993 0.577971 -1.57229
v -2.54057 -1.43594 -3.11256
v -2.88937 -1.25007 -3.18529
v -2.61712 -1.79713 -3.09765
v 1.99551 -1.0213 -1.14451
v 1.07311 -0.792952 -1.10526
v 2.69591 -0.798468 -1.13454
v 1.40061 -1.21572 -1.13251
v 1.25036 -1.37562 -0.535216
v 1.07311 -0.792952 -1.10526
v 4.25852 -1.25941 3.10424
v 4.45887 -1.19276 3.12041
v 4.83037 -1.39068 3.11158
v -2.88937 -1.25007 -3.18529
v -2.61712 -1.79713 -3.09765
v -3.128 -1.67268 -3.13177
v -0.910338 -2.03675 -0.772449
v -0.539272 -1.09163 -1.4352
v 1.25036 -1.37562 -0.535216
v -3.32748 0.582109 -2.26334
v -2.98993 0.577971 -1.57229
v -3.05724 0.670346 -1.23617
v -2.98993 0.577971 -1.57229
v -1.98165 0.95675 0.165244
v -3.05724 0.670346 -1.23617
v -1.98165 0.95675 0.165244
v -2.92276 0.66395 1.79985
v -1.60562 0.494485 1.96967
v -0.539272 -1.09163 -1.4352
v 1.25036 -1.37562 -0.535216
v 1.07311 -0.792952 -1.10526
v 4.45887 -1.19276 3.12041
v 4.45494 -1.17931 2.89787
v 4.83037 -1.39068 3.11158
# 1875 elements written

vt 0 0
vt 0 0
vt 0 0
vt 0 0
vt 0 0
vt 0 0
vt 0 0
vt 0 0
vt 0 0
vt 0 0
vt 0 0
vt 0 0
vt 0 0
vt 0 0
vt 0 0
vt 0 0
vt 0 0
vt 0 0
vt 0 0
vt 0 0
vt 0 0
vt 0 0
vt 0 0
vt 0 0
vt 0 0
vt 0 0
vt 0 0
vt 0 0
vt 0 0
vt 0 0
vt 0 0
vt 0 0
vt 0 0
vt 0 0
vt 0 0
vt 0 0
vt 0 0
vt 0 0
vt 0 0
vt 0 0
vt 0 0
vt 0 0
vt 0 0
vt 0 0
vt 0 0
vt 0 0
vt 0 0
vt 0 0
vt 0 0
vt 0 0
vt 0 0
vt 0 0
vt 0 0
vt 0 0
vt 0 0
vt 0 0
vt 0 0
vt 0 0
vt 0 0
vt 0 0
vt 0 0
vt 0 0
vt 0 0
vt 0 0
vt 0 0
vt 0 0
vt 0 0
vt 0 0
vt 0 0
vt 0 0
vt 0 0
vt 0 0
vt 0 0
vt 0 0
vt 0 0
vt 0 0
vt 0 0
vt 0 0
vt 0 0
vt 0 0
vt 0 0
vt 0 0
vt 0 0
vt 0 0
vt 0 0
vt 0 0
vt 0 0
vt 0 0
vt 0 0
vt 0 0
vt 0 0
vt 0 0
vt 0 0
vt 0 0
vt 0 0
vt 0 0
vt 0 0
vt 0 0
vt 0 0
vt 0 0
vt 0 0
vt 0 0
vt 0 0
vt 0 0
vt 0 0
vt 0 0
vt 0 0
vt 0 0
vt 0 0
vt 0 0
vt 0 0
vt 0 0
vt 0 0
vt 0 0
vt 0 0
vt 0 0
vt 0 0
vt 0 0
vt 0 0
vt 0 0
vt 0 0
vt 0 0
vt 0 0
vt 0 0
vt 0 0
vt 0 0
vt 0 0
vt 0 0
vt 0 0
vt 0 0
vt 0 0
vt 0 0
vt 0 0
vt 0 0
vt 0 0
vt 0 0
vt 0 0
vt 0 0
vt 0 0
vt 0 0
vt 0 0
vt 0 0
vt 0 0
vt 0 0
vt 0 0
vt 0 0
vt 0 0
vt 0 0
vt 0 0
vt 0 0
vt 0 0
vt 0 0
vt 0 0
vt 0 0
vt 0 0
vt 0 0
vt 0 0
vt 0 0
vt 0 0
vt 0 0
vt 0 0
vt 0 0
vt 0 0
vt 0 0
vt 0 0
vt 0 0
vt 0 0
vt 0 0
vt 0 0
vt 0 0
vt 0 0
vt 0 0
vt 0 0
vt 0 0
vt 0 0
vt 0 0
vt 0 0
vt 0 0
vt 0 0
vt 0 0
vt 0 0
vt 0 0
vt 0 0
vt 0 0
vt 0 0
vt 0 0
vt 0 0
vt 0 0
vt 0 0
vt 0 0
vt 0 0
vt 0 0
vt 0 0
vt 0 0
vt 0 0
vt 0 0
vt 0 0
vt 0 0
vt 0 0
vt 0 0
vt 0 0
vt 0 0
vt 0 0
vt 0 0
vt 0 0
vt 0 0
vt 0 0
vt 0 0
vt 0 0
vt 0 0
vt 0 0
vt 0 0
vt 0 0
vt 0 0
vt 0 0
vt 0 0
vt 0 0
vt 0 0
vt 0 0
vt 0 0
vt 0 0
vt 0 0
vt 0 0
vt 0 0
vt 0 0
vt 0 0
vt 0 0
vt 0 0
vt 0 0
vt 0 0
vt 0 0
vt 0 0
vt 0 0
vt 0 0
vt 0 0
vt 0 0
vt 0 0
vt 0 0
vt 0 0
vt 0 0
vt 0 0
vt 0 0
vt 0 0
vt 0 0
vt 0 0
vt 0 0
vt 0 0
vt 0 0
vt 0 0
vt 0 0
vt 0 0
vt 0 0
vt 0 0
vt 0 0
vt 0 0
vt 0 0
vt 0 0
vt 0 0
vt 0 0
vt 0 0
vt 0 0
vt 0 0
vt 0 0
vt 0 0
vt 0 0
vt 0 0
vt 0 0
vt 0 0
vt 0 0
vt 0 0
vt 0 0
vt 0 0
vt 0 0
vt 0 0
vt 0 0
vt 0 0
vt 0 0
vt 0 0
vt 0 0
vt 0 0
vt 0 0
vt 0 0
vt 0 0
vt 0 0
vt 0 0
vt 0 0
vt 0 0
vt 0 0
vt 0 0
vt 0 0
vt 0 0
vt 0 0
vt 0 0
vt 0 0
vt 0 0
vt 0 0
vt 0 0
vt 0 0
vt 0 0
vt 0 0
vt 0 0
vt 0 0
vt 0 0
vt 0 0
vt 0 0
vt 0 0
vt 0 0
vt 0 0
vt 0 0
vt 0 0
vt 0 0
vt 0 0
vt 0 0
vt 0 0
vt 0 0
vt 0 0
vt 0 0
vt 0 0
vt 0 0
vt 0 0
vt 0 0
vt 0 0
vt 0 0
vt 0 0
vt 0 0
vt 0 0
vt 0 0
vt 0 0
vt 0 0
vt 0 0
vt 0 0
vt 0 0
vt 0 0
vt 0 0
vt 0 0
vt 0 0
vt 0 0
vt 0 0
vt 0 0
vt 0 0
vt 0 0
vt 0 0
vt 0 0
vt 0 0
vt 0 0
vt 0 0
vt 0 0
vt 0 0
vt 0 0
vt 0 0
vt 0 0
vt 0 0
vt 0 0
vt 0 0
vt 0 0
vt 0 0
vt 0 0
vt 0 0
vt 0 0
vt 0 0
vt 0 0
vt 0 0
vt 0 0
vt 0 0
vt 0 0
vt 0 0
vt 0 0
vt 0 0
vt 0 0
vt 0 0
vt 0 0
vt 0 0
vt 0 0
vt 0 0
vt 0 0
vt 0 0
vt 0 0
vt 0 0
vt 0 0
vt 0 0
vt 0 0
vt 0 0
vt 0 0
vt 0 0
vt 0 0
vt 0 0
vt 0 0
vt 0 0
vt 0 0
vt 0 0
vt 0 0
vt 0 0
vt 0 0
vt 0 0
vt 0 0
vt 0 0
vt 0 0
vt 0 0
vt 0 0
vt 0 0
vt 0 0
vt 0 0
vt 0 0
vt 0 0
vt 0 0
vt 0 0
vt 0 0
vt 0 0
vt 0 0
vt 0 0
vt 0 0
vt 0 0
vt 0 0
vt 0 0
vt 0 0
vt 0 0
vt 0 0
vt 0 0
vt 0 0
vt 0 0
vt 0 0
vt 0 0
vt 0 0
vt 0 0
vt 0 0
vt 0 0
vt 0 0
vt 0 0
vt 0 0
vt 0 0
vt 0 0
vt 0 0
vt 0 0
vt 0 0
vt 0 0
vt 0 0
vt 0 0
vt 0 0
vt 0 0
vt 0 0
vt 0 0
vt 0 0
vt 0 0
vt 0 0
vt 0 0
vt 0 0
vt 0 0
vt 0 0
vt 0 0
vt 0 0
vt 0 0
vt 0 0
vt 0 0
vt 0 0
vt 0 0
vt 0 0
vt 0 0
vt 0 0
vt 0 0
vt 0 0
vt 0 0
vt 0 0
vt 0 0
vt 0 0
vt 0 0
vt 0 0
vt 0 0
vt 0 0
vt 0 0
vt 0 0
vt 0 0
vt 0 0
vt 0 0
vt 0 0
vt 0 0
vt 0 0
vt 0 0
vt 0 0
vt 0 0
vt 0 0
vt 0 0
vt 0 0
vt 0 0
vt 0 0
vt 0 0
vt 0 0
vt 0 0
vt 0 0
vt 0 0
vt 0 0
vt 0 0
vt 0 0
vt 0 0
vt 0 0
vt 0 0
vt 0 0
vt 0 0
vt 0 0
vt 0 0
vt 0 0
vt 0 0
vt 0 0
vt 0 0
vt 0 0
vt 0 0
vt 0 0
vt 0 0
vt 0 0
vt 0 0
vt 0 0
vt 0 0
vt 0 0
vt 0 0
vt 0 0
vt 0 0
vt 0 0
vt 0 0
vt 0 0
vt 0 0
vt 0 0
vt 0 0
vt 0 0
vt 0 0
vt 0 0
vt 0 0
vt 0 0
vt 0 0
vt 0 0
vt 0 0
vt 0 0
vt 0 0
vt 0 0
vt 0 0
vt 0 0
vt 0 0
vt 0 0
vt 0 0
vt 0 0
vt 0 0
vt 0 0
vt 0 0
vt 0 0
vt 0 0
vt 0 0
vt 0 0
vt 0 0
vt 0 0
vt 0 0
vt 0 0
vt 0 0
vt 0 0
vt 0 0
vt 0 0
vt 0 0
vt 0 0
vt 0 0
vt 0 0
vt 0 0
vt 0 0
vt 0 0
vt 0 0
vt 0 0
vt 0 0
vt 0 0
vt 0 0
vt 0 0
vt 0 0
vt 0 0
vt 0 0
vt 0 0
vt 0 0
vt 0 0
vt 0 0
vt 0 0
vt 0 0
vt 0 0
vt 0 0
vt 0 0
vt 0 0
vt 0 0
vt 0 0
vt 0 0
vt 0 0
vt 0 0
vt 0 0
vt 0 0
vt 0 0
vt 0 0
vt 0 0
vt 0 0
vt 0 0
vt 0 0
vt 0 0
vt 0 0
vt 0 0
vt 0 0
vt 0 0
vt 0 0
vt 0 0
vt 0 0
vt 0 0
vt 0 0
vt 0 0
vt 0 0
vt 0 0
vt 0 0
vt 0 0
vt 0 0
vt 0 0
vt 0 0
vt 0 0
vt 0 0
vt 0 0
vt 0 0
vt 0 0
vt 0 0
vt 0 0
vt 0 0
vt 0 0
vt 0 0
vt 0 0
vt 0 0
vt 0 0
vt 0 0
vt 0 0
vt 0 0
vt 0 0
vt 0 0
vt 0 0
vt 0 0
vt 0 0
vt 0 0
vt 0 0
vt 0 0
vt 0 0
vt 0 0
vt 0 0
vt 0 0
vt 0 0
vt 0 0
vt 0 0
vt 0 0
vt 0 0
vt 0 0
vt 0 0
vt 0 0
vt 0 0
vt 0 0
vt 0 0
vt 0 0
vt 0 0
vt 0 0
vt 0 0
vt 0 0
vt 0 0
vt 0 0
vt 0 0
vt 0 0
vt 0 0
vt 0 0
vt 0 0
vt 0 0
vt 0 0
vt 0 0
vt 0 0
vt 0 0
vt 0 0
vt 0 0
vt 0 0
vt 0 0
vt 0 0
vt 0 0
vt 0 0
vt 0 0
vt 0 0
vt 0 0
vt 0 0
vt 0 0
vt 0 0
vt 0 0
vt 0 0
vt 0 0
vt 0 0
vt 0 0
vt 0 0
vt 0 0
vt 0 0
vt 0 0
vt 0 0
vt 0 0
vt 0 0
vt 0 0
vt 0 0
vt 0 0
vt 0 0
vt 0 0
vt 0 0
vt 0 0
vt 0 0
vt 0 0
vt 0 0
vt 0 0
vt 0 0
vt 0 0
vt 0 0
vt 0 0
vt 0 0
vt 0 0
vt 0 0
vt 0 0
vt 0 0
vt 0 0
vt 0 0
vt 0 0
vt 0 0
vt 0 0
vt 0 0
vt 0 0
vt 0 0
vt 0 0
vt 0 0
vt 0 0
vt 0 0
vt 0 0
vt 0 0
vt 0 0
vt 0 0
vt 0 0
vt 0 0
vt 0 0
vt 0 0
vt 0 0
vt 0 0
vt 0 0
vt 0 0
vt 0 0
vt 0 0
vt 0 0
vt 0 0
vt 0 0
vt 0 0
vt 0 0
vt 0 0
vt 0 0
vt 0 0
vt 0 0
vt 0 0
vt 0 0
vt 0 0
vt 0 0
vt 0 0
vt 0 0
vt 0 0
vt 0 0
vt 0 0
vt 0 0
vt 0 0
vt 0 0
vt 0 0
vt 0 0
vt 0 0
vt 0 0
vt 0 0
vt 0 0
vt 0 0
vt 0 0
vt 0 0
vt 0 0
vt 0 0
vt 0 0
vt 0 0
vt 0 0
vt 0 0
vt 0 0
vt 0 0
vt 0 0
vt 0 0
vt 0 0
vt 0 0
vt 0 0
vt 0 0
vt 0 0
vt 0 0
vt 0 0
vt 0 0
vt 0 0
vt 0 0
vt 0 0
vt 0 0
vt 0 0
vt 0 0
vt 0 0
vt 0 0
vt 0 0
vt 0 0
vt 0 0
vt 0 0
vt 0 0
vt 0 0
vt 0 0
vt 0 0
vt 0 0
vt 0 0
vt 0 0
vt 0 0
vt 0 0
vt 0 0
vt 0 0
vt 0 0
vt 0 0
vt 0 0
vt 0 0
vt 0 0
vt 0 0
vt 0 0
vt 0 0
vt 0 0
vt 0 0
vt 0 0
vt 0 0
vt 0 0
vt 0 0
vt 0 0
vt 0 0
vt 0 0
vt 0 0
vt 0 0
vt 0 0
vt 0 0
vt 0 0
vt 0 0
vt 0 0
vt 0 0
vt 0 0
vt 0 0
vt 0 0
vt 0 0
vt 0 0
vt 0 0
vt 0 0
vt 0 0
vt 0 0
vt 0 0
vt 0 0
vt 0 0
vt 0 0
vt 0 0
vt 0 0
vt 0 0
vt 0 0
vt 0 0
vt 0 0
vt 0 0
vt 0 0
vt 0 0
vt 0 0
vt 0 0
vt 0 0
vt 0 0
vt 0 0
vt 0 0
vt 0 0
vt 0 0
vt 0 0
vt 0 0
vt 0 0
vt 0 0
vt 0 0
vt 0 0
vt 0 0
vt 0 0
vt 0 0
vt 0 0
vt 0 0
vt 0 0
vt 0 0
vt 0 0
vt 0 0
vt 0 0
vt 0 0
vt 0 0
vt 0 0
vt 0 0
vt 0 0
vt 0 0
vt 0 0
vt 0 0
vt 0 0
vt 0 0
vt 0 0
vt 0 0
vt 0 0
vt 0 0
vt 0 0
vt 0 0
vt 0 0
vt 0 0
vt 0 0
vt 0 0
vt 0 0
vt 0 0
vt 0 0
vt 0 0
vt 0 0
vt 0 0
vt 0 0
vt 0 0
vt 0 0
vt 0 0
vt 0 0
vt 0 0
vt 0 0
vt 0 0
vt 0 0
vt 0 0
vt 0 0
vt 0 0
vt 0 0
vt 0 0
vt 0 0
vt 0 0
vt 0 0
vt 0 0
vt 0 0
vt 0 0
vt 0 0
vt 0 0
vt 0 0
vt 0 0
vt 0 0
vt 0 0
vt 0 0
vt 0 0
vt 0 0
vt 0 0
vt 0 0
vt 0 0
vt 0 0
vt 0 0
vt 0 0
vt 0 0
vt 0 0
vt 0 0
vt 0 0
vt 0 0
vt 0 0
vt 0 0
vt 0 0
vt 0 0
vt 0 0
vt 0 0
vt 0 0
vt 0 0
vt 0 0
vt 0 0
vt 0 0
vt 0 0
vt 0 0
vt 0 0
vt 0 0
vt 0 0
vt 0 0
vt 0 0
vt 0 0
vt 0 0
vt 0 0
vt 0 0
vt 0 0
vt 0 0
vt 0 0
vt 0 0
vt 0 0
vt 0 0
vt 0 0
vt 0 0
vt 0 0
vt 0 0
vt 0 0
vt 0 0
vt 0 0
vt 0 0
vt 0 0
vt 0 0
vt 0 0
vt 0 0
vt 0 0
vt 0 0
vt 0 0
vt 0 0
vt 0 0
vt 0 0
vt 0 0
vt 0 0
vt 0 0
vt 0 0
vt 0 0
vt 0 0
vt 0 0
vt 0 0
vt 0 0
vt 0 0
vt 0 0
vt 0 0
vt 0 0
vt 0 0
vt 0 0
vt 0 0
vt 0 0
vt 0 0
vt 0 0
vt 0 0
vt 0 0
vt 0 0
vt 0 0
vt 0 0
vt 0 0
vt 0 0
vt 0 0
vt 0 0
vt 0 0
vt 0 0
vt 0 0
vt 0 0
vt 0 0
vt 0 0
vt 0 0
vt 0 0
vt 0 0
vt 0 0
vt 0 0
vt 0 0
vt 0 0
vt 0 0
vt 0 0
vt 0 0
vt 0 0
vt 0 0
vt 0 0
vt 0 0
vt 0 0
vt 0 0
vt 0 0
vt 0 0
vt 0 0
vt 0 0
vt 0 0
vt 0 0
vt 0 0
vt 0 0
vt 0 0
vt 0 0
vt 0 0
vt 0 0
vt 0 0
vt 0 0
vt 0 0
vt 0 0
vt 0 0
vt 0 0
vt 0 0
vt 0 0
vt 0 0
vt 0 0
vt 0 0
vt 0 0
vt 0 0
vt 0 0
vt 0 0
vt 0 0
vt 0 0
vt 0 0
vt 0 0
vt 0 0
vt 0 0
vt 0 0
vt 0 0
vt 0 0
vt 0 0
vt 0 0
vt 0 0
vt 0 0
vt 0 0
vt 0 0
vt 0 0
vt 0 0
vt 0 0
vt 0 0
vt 0 0
vt 0 0
vt 0 0
vt 0 0
vt 0 0
vt 0 0
vt 0 0
vt 0 0
vt 0 0
vt 0 0
vt 0 0
vt 0 0
vt 0 0
vt 0 0
vt 0 0
vt 0 0
vt 0 0
vt 0 0
vt 0 0
vt 0 0
vt 0 0
vt 0 0
vt 0 0
vt 0 0
vt 0 0
vt 0 0
vt 0 0
vt 0 0
vt 0 0
vt 0 0
vt 0 0
vt 0 0
vt 0 0
vt 0 0
vt 0 0
vt 0 0
vt 0 0
vt 0 0
vt 0 0
vt 0 0
vt 0 0
vt 0 0
vt 0 0
vt 0 0
vt 0 0
vt 0 0
vt 0 0
vt 0 0
vt 0 0
vt 0 0
vt 0 0
vt 0 0
vt 0 0
vt 0 0
vt 0 0
vt 0 0
vt 0 0
vt 0 0
vt 0 0
vt 0 0
vt 0 0
vt 0 0
vt 0 0
vt 0 0
vt 0 0
vt 0 0
vt 0 0
vt 0 0
vt 0 0
vt 0 0
vt 0 0
vt 0 0
vt 0 0
vt 0 0
vt 0 0
vt 0 0
vt 0 0
vt 0 0
vt 0 0
vt 0 0
vt 0 0
vt 0 0
vt 0 0
vt 0 0
vt 0 0
vt 0 0
vt 0 0
vt 0 0
vt 0 0
vt 0 0
vt 0 0
vt 0 0
vt 0 0
vt 0 0
vt 0 0
vt 0 0
vt 0 0
vt 0 0
vt 0 0
vt 0 0
vt 0 0
vt 0 0
vt 0 0
vt 0 0
vt 0 0
vt 0 0
vt 0 0
vt 0 0
vt 0 0
vt 0 0
vt 0 0
vt 0 0
vt 0 0
vt 0 0
vt 0 0
vt 0 0
vt 0 0
vt 0 0
vt 0 0
vt 0 0
vt 0 0
vt 0 0
vt 0 0
vt 0 0
vt 0 0
vt 0 0
vt 0 0
vt 0 0
vt 0 0
vt 0 0
vt 0 0
vt 0 0
vt 0 0
vt 0 0
vt 0 0
vt 0 0
vt 0 0
vt 0 0
vt 0 0
vt 0 0
vt 0 0
vt 0 0
vt 0 0
vt 0 0
vt 0 0
vt 0 0
vt 0 0
vt 0 0
vt 0 0
vt 0 0
vt 0 0
vt 0 0
vt 0 0
vt 0 0
vt 0 0
vt 0 0
vt 0 0
vt 0 0
vt 0 0
vt 0 0
vt 0 0
vt 0 0
vt 0 0
vt 0 0
vt 0 0
vt 0 0
vt 0 0
vt 0 0
vt 0 0
vt 0 0
vt 0 0
vt 0 0
vt 0 0
vt 0 0
vt 0 0
vt 0 0
vt 0 0
vt 0 0
vt 0 0
vt 0 0
vt 0 0
vt 0 0
vt 0 0
vt 0 0
vt 0 0
vt 0 0
vt 0 0
vt 0 0
vt 0 0
vt 0 0
vt 0 0
vt 0 0
vt 0 0
vt 0 0
vt 0 0
vt 0 0
vt 0 0
vt 0 0
vt 0 0
vt 0 0
vt 0 0
vt 0 0
vt 0 0
vt 0 0
vt 0 0
vt 0 0
vt 0 0
vt 0 0
vt 0 0
vt 0 0
vt 0 0
vt 0 0
vt 0 0
vt 0 0
vt 0 0
vt 0 0
vt 0 0
vt 0 0
vt 0 0
vt 0 0
vt 0 0
vt 0 0
vt 0 0
vt 0 0
vt 0 0
vt 0 0
vt 0 0
vt 0 0
vt 0 0
vt 0 0
vt 0 0
vt 0 0
vt 0 0
vt 0 0
vt 0 0
vt 0 0
vt 0 0
vt 0 0
vt 0 0
vt 0 0
vt 0 0
vt 0 0
vt 0 0
vt 0 0
vt 0 0
vt 0 0
vt 0 0
vt 0 0
vt 0 0
vt 0 0
vt 0 0
vt 0 0
vt 0 0
vt 0 0
vt 0 0
vt 0 0
vt 0 0
vt 0 0
vt 0 0
vt 0 0
vt 0 0
vt 0 0
vt 0 0
vt 0 0
vt 0 0
vt 0 0
vt 0 0
vt 0 0
vt 0 0
vt 0 0
vt 0 0
vt 0 0
vt 0 0
vt 0 0
vt 0 0
vt 0 0
vt 0 0
vt 0 0
vt 0 0
vt 0 0
vt 0 0
vt 0 0
vt 0 0
vt 0 0
vt 0 0
vt 0 0
vt 0 0
vt 0 0
vt 0 0
vt 0 0
vt 0 0
vt 0 0
vt 0 0
vt 0 0
vt 0 0
vt 0 0
vt 0 0
vt 0 0
vt 0 0
vt 0 0
vt 0 0
vt 0 0
vt 0 0
vt 0 0
vt 0 0
vt 0 0
vt 0 0
vt 0 0
vt 0 0
vt 0 0
vt 0 0
vt 0 0
vt 0 0
vt 0 0
vt 0 0
vt 0 0
vt 0 0
vt 0 0
vt 0 0
vt 0 0
vt 0 0
vt 0 0
vt 0 0
vt 0 0
vt 0 0
vt 0 0
vt 0 0
vt 0 0
vt 0 0
vt 0 0
vt 0 0
vt 0 0
vt 0 0
vt 0 0
vt 0 0
vt 0 0
vt 0 0
vt 0 0
vt 0 0
vt 0 0
vt 0 0
vt 0 0
vt 0 0
vt 0 0
vt 0 0
vt 0 0
vt 0 0
vt 0 0
vt 0 0
vt 0 0
vt 0 0
vt 0 0
vt 0 0
vt 0 0
vt 0 0
vt 0 0
vt 0 0
vt 0 0
vt 0 0
vt 0 0
vt 0 0
vt 0 0
vt 0 0
vt 0 0
vt 0 0
vt 0 0
vt 0 0
vt 0 0
vt 0 0
vt 0 0
vt 0 0
vt 0 0
vt 0 0
vt 0 0
vt 0 0
vt 0 0
vt 0 0
vt 0 0
vt 0 0
vt 0 0
vt 0 0
vt 0 0
vt 0 0
vt 0 0
vt 0 0
vt 0 0
vt 0 0
vt 0 0
vt 0 0
vt 0 0
vt 0 0
vt 0 0
vt 0 0
vt 0 0
vt 0 0
vt 0 0
vt 0 0
vt 0 0
vt 0 0
vt 0 0
vt 0 0
vt 0 0
vt 0 0
vt 0 0
vt 0 0
vt 0 0
vt 0 0
vt 0 0
vt 0 0
vt 0 0
vt 0 0
vt 0 0
vt 0 0
vt 0 0
vt 0 0
vt 0 0
vt 0 0
vt 0 0
vt 0 0
vt 0 0
vt 0 0
vt 0 0
vt 0 0
vt 0 0
vt 0 0
vt 0 0
vt 0 0
vt 0 0
vt 0 0
vt 0 0
vt 0 0
vt 0 0
vt 0 0
vt 0 0
vt 0 0
vt 0 0
vt 0 0
vt 0 0
vt 0 0
vt 0 0
vt 0 0
vt 0 0
vt 0 0
vt 0 0
vt 0 0
vt 0 0
vt 0 0
vt 0 0
vt 0 0
vt 0 0
vt 0 0
vt 0 0
vt 0 0
vt 0 0
vt 0 0
vt 0 0
vt 0 0
vt 0 0
vt 0 0
vt 0 0
vt 0 0
vt 0 0
vt 0 0
vt 0 0
vt 0 0
vt 0 0
vt 0 0
vt 0 0
vt 0 0
vt 0 0
vt 0 0
vt 0 0
vt 0 0
vt 0 0
vt 0 0
vt 0 0
vt 0 0
vt 0 0
vt 0 0
vt 0 0
vt 0 0
vt 0 0
vt 0 0
vt 0 0
vt 0 0
vt 0 0
vt 0 0
vt 0 0
vt 0 0
vt 0 0
vt 0 0
vt 0 0
vt 0 0
vt 0 0
vt 0 0
vt 0 0
vt 0 0
vt 0 0
vt 0 0
vt 0 0
vt 0 0
vt 0 0
vt 0 0
vt 0 0
vt 0 0
vt 0 0
vt 0 0
vt 0 0
vt 0 0
vt 0 0
vt 0 0
vt 0 0
vt 0 0
vt 0 0
vt 0 0
vt 0 0
vt 0 0
vt 0 0
vt 0 0
vt 0 0
vt 0 0
vt 0 0
vt 0 0
vt 0 0
vt 0 0
vt 0 0
vt 0 0
vt 0 0
vt 0 0
vt 0 0
vt 0 0
vt 0 0
vt 0 0
vt 0 0
vt 0 0
vt 0 0
vt 0 0
vt 0 0
vt 0 0
vt 0 0
vt 0 0
vt 0 0
vt 0 0
vt 0 0
vt 0 0
vt 0 0
vt 0 0
vt 0 0
vt 0 0
vt 0 0
vt 0 0
vt 0 0
vt 0 0
vt 0 0
vt 0 0
vt 0 0
vt 0 0
vt 0 0
vt 0 0
vt 0 0
vt 0 0
vt 0 0
vt 0 0
vt 0 0
vt 0 0
vt 0 0
vt 0 0
vt 0 0
vt 0 0
vt 0 0
vt 0 0
vt 0 0
vt 0 0
vt 0 0
vt 0 0
vt 0 0
vt 0 0
vt 0 0
vt 0 0
vt 0 0
vt 0 0
vt 0 0
vt 0 0
vt 0 0
vt 0 0
vt 0 0
vt 0 0
vt 0 0
vt 0 0
vt 0 0
vt 0 0
vt 0 0
vt 0 0
vt 0 0
vt 0 0
vt 0 0
vt 0 0
vt 0 0
vt 0 0
vt 0 0
vt 0 0
vt 0 0
vt 0 0
vt 0 0
vt 0 0
vt 0 0
vt 0 0
vt 0 0
vt 0 0
vt 0 0
vt 0 0
vt 0 0
vt 0 0
vt 0 0
vt 0 0
vt 0 0
vt 0 0
vt 0 0
vt 0 0
vt 0 0
vt 0 0
vt 0 0
vt 0 0
vt 0 0
vt 0 0
vt 0 0
vt 0 0
vt 0 0
vt 0 0
vt 0 0
vt 0 0
vt 0 0
vt 0 0
vt 0 0
vt 0 0
vt 0 0
vt 0 0
vt 0 0
vt 0 0
vt 0 0
vt 0 0
vt 0 0
vt 0 0
vt 0 0
vt 0 0
vt 0 0
vt 0 0
vt 0 0
vt 0 0
vt 0 0
vt 0 0
vt 0 0
vt 0 0
vt 0 0
vt 0 0
vt 0 0
vt 0 0
vt 0 0
vt 0 0
vt 0 0
vt 0 0
vt 0 0
vt 0 0
vt 0 0
vt 0 0
vt 0 0
vt 0 0
vt 0 0
vt 0 0
vt 0 0
vt 0 0
vt 0 0
vt 0 0
vt 0 0
vt 0 0
vt 0 0
vt 0 0
vt 0 0
vt 0 0
vt 0 0
vt 0 0
vt 0 0
vt 0 0
vt 0 0
vt 0 0
vt 0 0
vt 0 0
vt 0 0
vt 0 0
vt 0 0
vt 0 0
vt 0 0
vt 0 0
vt 0 0
vt 0 0
vt 0 0
vt 0 0
vt 0 0
vt 0 0
vt 0 0
vt 0 0
vt 0 0
vt 0 0
vt 0 0
vt 0 0
vt 0 0
vt 0 0
vt 0 0
vt 0 0
vt 0 0
vt 0 0
vt 0 0
vt 0 0
vt 0 0
vt 0 0
vt 0 0
vt 0 0
vt 0 0
vt 0 0
vt 0 0
vt 0 0
vt 0 0
vt 0 0
vt 0 0
vt 0 0
vt 0 0
vt 0 0
vt 0 0
vt 0 0
vt 0 0
vt 0 0
vt 0 0
vt 0 0
vt 0 0
vt 0 0
vt 0 0
vt 0 0
vt 0 0
vt 0 0
vt 0 0
vt 0 0
vt 0 0
vt 0 0
vt 0 0
vt 0 0
vt 0 0
vt 0 0
vt 0 0
vt 0 0
vt 0 0
vt 0 0
vt 0 0
vt 0 0
vt 0 0
vt 0 0
vt 0 0
vt 0 0
vt 0 0
vt 0 0
vt 0 0
vt 0 0
vt 0 0
vt 0 0
vt 0 0
vt 0 0
vt 0 0
vt 0 0
vt 0 0
vt 0 0
vt 0 0
vt 0 0
vt 0 0
vt 0 0
vt 0 0
vt 0 0
vt 0 0
vt 0 0
vt 0 0
vt 0 0
vt 0 0
vt 0 0
vt 0 0
vt 0 0
vt 0 0
vt 0 0
vt 0 0
vt 0 0
vt 0 0
# 1875 elements written
f 1/1/ 2/2/ 3/3/ 
f 4/4/ 5/5/ 6/6/ 
f 7/7/ 8/8/ 9/9/ 
f 10/10/ 11/11/ 12/12/ 
f 13/13/ 14/14/ 15/15/ 
f 16/16/ 17/17/ 18/18/ 
f 19/19/ 20/20/ 21/21/ 
f 22/22/ 23/23/ 24/24/ 
f 25/25/ 26/26/ 27/27/ 
f 28/28/ 29/29/ 30/30/ 
f 31/31/ 32/32/ 33/33/ 
f 34/34/ 35/35/ 36/36/ 
f 37/37/ 38/38/ 39/39/ 
f 40/40/ 41/41/ 42/42/ 
f 43/43/ 44/44/ 45/45/ 
f 46/46/ 47/47/ 48/48/ 
f 49/49/ 50/50/ 51/51/ 
f 52/52/ 53/53/ 54/54/ 
f 55/55/ 56/56/ 57/57/ 
f 58/58/ 59/59/ 60/60/ 
f 61/61/ 62/62/ 63/63/ 
f 64/64/ 65/65/ 66/66/ 
f 67/67/ 68/68/ 69/69/ 
f 70/70/ 71/71/ 72/72/ 
f 73/73/ 74/74/ 75/75/ 
f 76/76/ 77/77/ 78/78/ 
f 79/79/ 80/80/ 81/81/ 
f 82/82/ 83/83/ 84/84/ 
f 85/85/ 86/86/ 87/87/ 
f 88/88/ 89/89/ 90/90/ 
f 91/91/ 92/92/ 93/93/ 
f 94/94/ 95/95/ 96/96/ 
f 97/97/ 98/98/ 99/99/ 
f 100/100/ 101/101/ 102/102/ 
f 103/103/ 104/104/ 105/105/ 
f 106/106/ 107/107/ 108/108/ 
f 109/109/ 110/110/ 111/111/ 
f 112/112/ 113/113/ 114/114/ 
f 115/115/ 116/116/ 117/117/ 
f 118/118/ 119/119/ 120/120/ 
f 121/121/ 122/122/ 123/123/ 
f 124/124/ 125/125/ 126/126/ 
f 127/127/ 128/128/ 129/129/ 
f 130/130/ 131/131/ 132/132/ 
f 133/133/ 134/134/ 135/135/ 
f 136/136/ 137/137/ 138/138/ 
f 139/139/ 140/140/ 141/141/ 
f 142/142/ 143/143/ 144/144/ 
f 145/145/ 146/146/ 147/147/ 
f 148/148/ 149/149/ 150/150/ 
f 151/151/ 152/152/ 153/153/ 
f 154/154/ 155/155/ 156/156/ 
f 157/157/ 158/158/ 159/159/ 
f 160/160/ 161/161/ 162/162/ 
f 163/163/ 164/164/ 165/165/ 
f 166/166/ 167/167/ 168/168/ 
f 169/169/ 170/170/ 171/171/ 
f 172/172/ 173/173/ 174/174/ 
f 175/175/ 176/176/ 177/177/ 
f 178/178/ 179/179/ 180/180/ 
f 181/181/ 182/182/ 183/183/ 
f 184/184/ 185/185/ 186/186/ 
f 187/187/ 188/188/ 189/189/ 
f 190/190/ 191/191/ 192/192/ 
f 193/193/ 194/194/ 195/195/ 
f 196/196/ 197/197/ 198/198/ 
f 199/199/ 200/200/ 201/201/ 
f 202/202/ 203/203/ 204/204/ 
f 205/205/ 206/206/ 207/207/ 
f 208/208/ 209/209/ 210/210/ 
f 211/211/ 212/212/ 213/213/ 
f 214/214/ 215/215/ 216/216/ 
f 217/217/ 218/218/ 219/219/ 
f 220/220/ 221/221/ 222/222/ 
f 223/223/ 224/224/ 225/225/ 
f 226/226/ 227/227/ 228/228/ 
f 229/229/ 230/230/ 231/231/ 
f 232/232/ 233/233/ 234/234/ 
f 235/235/ 236/236/ 237/237/ 
f 238/238/ 239/239/ 240/240/ 
f 241/241/ 242/242/ 243/243/ 
f 244/244/ 245/245/ 246/246/ 
f 247/247/ 248/248/ 249/249/ 
f 250/250/ 251/251/ 252/252/ 
f 253/253/ 254/254/ 255/255/ 
f 256/256/ 257/257/ 258/258/ 
f 259/259/ 260/260/ 261/261/ 
f 262/262/ 263/263/ 264/264/ 
f 265/265/ 266/266/ 267/267/ 
f 268/268/ 269/269/ 270/270/ 
f 271/271/ 272/272/ 273/273/ 
f 274/274/ 275/275/ 276/276/ 
f 277/277/ 278/278/ 279/279/ 
f 280/280/ 281/281/ 282/282/ 
f 283/283/ 284/284/ 285/285/ 
f 286/286/ 287/287/ 288/288/ 
f 289/289/ 290/290/ 291/291/ 
f 292/292/ 293/293/ 294/294/ 
f 295/295/ 296/296/ 297/297/ 
f 298/298/ 299/299/ 300/300/ 
f 301/301/ 302/302/ 303/303/ 
f 304/304/ 305/305/ 306/306/ 
f 307/307/ 308/308/ 309/309/ 
f 310/310/ 311/311/ 312/312/ 
f 313/313/ 314/314/ 315/315/ 
f 316/316/ 317/317/ 318/318/ 
f 319/319/ 320/320/ 321/321/ 
f 322/322/ 323/323/ 324/324/ 
f 325/325/ 326/326/ 327/327/ 
f 328/328/ 329/329/ 330/330/ 
f 331/331/ 332/332/ 333/333/ 
f 334/334/ 335/335/ 336/336/ 
f 337/337/ 338/338/ 339/339/ 
f 340/340/ 341/341/ 342/342/ 
f 343/343/ 344/344/ 345/345/ 
f 346/346/ 347/347/ 348/348/ 
f 349/349/ 350/350/ 351/351/ 
f 352/352/ 353/353/ 354/354/ 
f 355/355/ 356/356/ 357/357/ 
f 358/358/ 359/359/ 360/360/ 
f 361/361/ 362/362/ 363/363/ 
f 364/364/ 365/365/ 366/366/ 
f 367/367/ 368/368/ 369/369/ 
f 370/370/ 371/371/ 372/372/ 
f 373/373/ 374/374/ 375/375/ 
f 376/376/ 377/377/ 378/378/ 
f 379/379/ 380/380/ 381/381/ 
f 382/382/ 383/383/ 384/384/ 
f 385/385/ 386/386/ 387/387/ 
f 388/388/ 389/389/ 390/390/ 
f 391/391/ 392/392/ 393/393/ 
f 394/394/ 395/395/ 396/396/ 
f 397/397/ 398/398/ 399/399/ 
f 400/400/ 401/401/ 402/402/ 
f 403/403/ 404/404/ 405/405/ 
f 406/406/ 407/407/ 408/408/ 
f 409/409/ 410/410/ 411/411/ 
f 412/412/ 413/413/ 414/414/ 
f 415/415/ 416/416/ 417/417/ 
f 418/418/ 419/419/ 420/420/ 
f 421/421/ 422/422/ 423/423/ 
f 424/424/ 425/425/ 426/426/ 
f 427/427/ 428/428/ 429/429/ 
f 430/430/ 431/431/ 432/432/ 
f 433/433/ 434/434/ 435/435/ 
f 436/436/ 437/437/ 438/438/ 
f 439/439/ 440/440/ 441/441/ 
f 442/442/ 443/443/ 444/444/ 
f 445/445/ 446/446/ 447/447/ 
f 448/448/ 449/449/ 450/450/ 
f 451/451/ 452/452/ 453/453/ 
f 454/454/ 455/455/ 456/456/ 
f 457/457/ 458/458/ 459/459/ 
f 460/460/ 461/461/ 462/462/ 
f 463/463/ 464/464/ 465/465/ 
f 466/466/ 467/467/ 468/468/ 
f 469/469/ 470/470/ 471/471/ 
f 472/472/ 473/473/ 474/474/ 
f 475/475/ 476/476/ 477/477/ 
f 478/478/ 479/479/ 480/480/ 
f 481/481/ 482/482/ 483/483/ 
f 484/484/ 485/485/ 486/486/ 
f 487/487/ 488/488/ 489/489/ 
f 490/490/ 491/491/ 492/492/ 
f 493/493/ 494/494/ 495/495/ 
f 496/496/ 497/497/ 498/498/ 
f 499/499/ 500/500/ 501/501/ 
f 502/502/ 503/503/ 504/504/ 
f 505/505/ 506/506/ 507/507/ 
f 508/508/ 509/509/ 510/510/ 
f 511/511/ 512/512/ 513/513/ 
f 514/514/ 515/515/ 516/516/ 
f 517/517/ 518/518/ 519/519/ 
f 520/520/ 521/521/ 522/522/ 
f 523/523/ 524/524/ 525/525/ 
f 526/526/ 527/527/ 528/528/ 
f 529/529/ 530/530/ 531/531/ 
f 532/532/ 533/533/ 534/534/ 
f 535/535/ 536/536/ 537/537/ 
f 538/538/ 539/539/ 540/540/ 
f 541/541/ 542/542/ 543/543/ 
f 544/544/ 545/545/ 546/546/ 
f 547/547/ 548/548/ 549/549/ 
f 550/550/ 551/551/ 552/552/ 
f 553/553/ 554/554/ 555/555/ 
f 556/556/ 557/557/ 558/558/ 
f 559/559/ 560/560/ 561/561/ 
f 562/562/ 563/563/ 564/564/ 
f 565/565/ 566/566/ 567/567/ 
f 568/568/ 569/569/ 570/570/ 
f 571/571/ 572/572/ 573/573/ 
f 574/574/ 575/575/ 576/576/ 
f 577/577/ 578/578/ 579/579/ 
f 580/580/ 581/581/ 582/582/ 
f 583/583/ 584/584/ 585/585/ 
f 586/586/ 587/587/ 588/588/ 
f 589/589/ 590/590/ 591/591/ 
f 592/592/ 593/593/ 594/594/ 
f 595/595/ 596/596/ 597/597/ 
f 598/598/ 599/599/ 600/600/ 
f 601/601/ 602/602/ 603/603/ 
f 604/604/ 605/605/ 606/606/ 
f 607/607/ 608/608/ 609/609/ 
f 610/610/ 611/611/ 612/612/ 
f 613/613/ 614/614/ 615/615/ 
f 616/616/ 617/617/ 618/618/ 
f 619/619/ 620/620/ 621/621/ 
f 622/622/ 623/623/ 624/624/ 
f 625/625/ 626/626/ 627/627/ 
f 628/628/ 629/629/ 630/630/ 
f 631/631/ 632/632/ 633/633/ 
f 634/634/ 635/635/ 636/636/ 
f 637/637/ 638/638/ 639/639/ 
f 640/640/ 641/641/ 642/642/ 
f 643/643/ 644/644/ 645/645/ 
f 646/646/ 647/647/ 648/648/ 
f 649/649/ 650/650/ 651/651/ 
f 652/652/ 653/653/ 654/654/ 
f 655/655/ 656/656/ 657/657/ 
f 658/658/ 659/659/ 660/660/ 
f 661/661/ 662/662/ 663/663/ 
f 664/664/ 665/665/ 666/666/ 
f 667/667/ 668/668/ 669/669/ 
f 670/670/ 671/671/ 672/672/ 
f 673/673/ 674/674/ 675/675/ 
f 676/676/ 677/677/ 678/678/ 
f 679/679/ 680/680/ 681/681/ 
f 682/682/ 683/683/ 684/684/ 
f 685/685/ 686/686/ 687/687/ 
f 688/688/ 689/689/ 690/690/ 
f 691/691/ 692/692/ 693/693/ 
f 694/694/ 695/695/ 696/696/ 
f 697/697/ 698/698/ 699/699/ 
f 700/700/ 701/701/ 702/702/ 
f 703/703/ 704/704/ 705/705/ 
f 706/706/ 707/707/ 708/708/ 
f 709/709/ 710/710/ 711/711/ 
f 712/712/ 713/713/ 714/714/ 
f 715/715/ 716/716/ 717/717/ 
f 718/718/ 719/719/ 720/720/ 
f 721/721/ 722/722/ 723/723/ 
f 724/724/ 725/725/ 726/726/ 
f 727/727/ 728/728/ 729/729/ 
f 730/730/ 731/731/ 732/732/ 
f 733/733/ 734/734/ 735/735/ 
f 736/736/ 737/737/ 738/738/ 
f 739/739/ 740/740/ 741/741/ 
f 742/742/ 743/743/ 744/744/ 
f 745/745/ 746/746/ 747/747/ 
f 748/748/ 749/749/ 750/750/ 
f 751/751/ 752/752/ 753/753/ 
f 754/754/ 755/755/ 756/756/ 
f 757/757/ 758/758/ 759/759/ 
f 760/760/ 761/761/ 762/762/ 
f 763/763/ 764/764/ 765/765/ 
f 766/766/ 767/767/ 768/768/ 
f 769/769/ 770/770/ 771/771/ 
f 772/772/ 773/773/ 774/774/ 
f 775/775/ 776/776/ 777/777/ 
f 778/778/ 779/779/ 780/780/ 
f 781/781/ 782/782/ 783/783/ 
f 784/784/ 785/785/ 786/786/ 
f 787/787/ 788/788/ 789/789/ 
f 790/790/ 791/791/ 792/792/ 
f 793/793/ 794/794/ 795/795/ 
f 796/796/ 797/797/ 798/798/ 
f 799/799/ 800/800/ 801/801/ 
f 802/802/ 803/803/ 804/804/ 
f 805/805/ 806/806/ 807/807/ 
f 808/808/ 809/809/ 810/810/ 
f 811/811/ 812/812/ 813/813/ 
f 814/814/ 815/815/ 816/816/ 
f 817/817/ 818/818/ 819/819/ 
f 820/820/ 821/821/ 822/822/ 
f 823/823/ 824/824/ 825/825/ 
f 826/826/ 827/827/ 828/828/ 
f 829/829/ 830/830/ 831/831/ 
f 832/832/ 833/833/ 834/834/ 
f 835/835/ 836/836/ 837/837/ 
f 838/838/ 839/839/ 840/840/ 
f 841/841/ 842/842/ 843/843/ 
f 844/844/ 845/845/ 846/846/ 
f 847/847/ 848/848/ 849/849/ 
f 850/850/ 851/851/ 852/852/ 
f 853/853/ 854/854/ 855/855/ 
f 856/856/ 857/857/ 858/858/ 
f 859/859/ 860/860/ 861/861/ 
f 862/862/ 863/863/ 864/864/ 
f 865/865/ 866/866/ 867/867/ 
f 868/868/ 869/869/ 870/870/ 
f 871/871/ 872/872/ 873/873/ 
f 874/874/ 875/875/ 876/876/ 
f 877/877/ 878/878/ 879/879/ 
f 880/880/ 881/881/ 882/882/ 
f 883/883/ 884/884/ 885/885/ 
f 886/886/ 887/887/ 888/888/ 
f 889/889/ 890/890/ 891/891/ 
f 892/892/ 893/893/ 894/894/ 
f 895/895/ 896/896/ 897/897/ 
f 898/898/ 899/899/ 900/900/ 
f 901/901/ 902/902/ 903/903/ 
f 904/904/ 905/905/ 906/906/ 
f 907/907/ 908/908/ 909/909/ 
f 910/910/ 911/911/ 912/912/ 
f 913/913/ 914/914/ 915/915/ 
f 916/916/ 917/917/ 918/918/ 
f 919/919/ 920/920/ 921/921/ 
f 922/922/ 923/923/ 924/924/ 
f 925/925/ 926/926/ 927/927/ 
f 928/928/ 929/929/ 930/930/ 
f 931/931/ 932/932/ 933/933/ 
f 934/934/ 935/935/ 936/936/ 
f 937/937/ 938/938/ 939/939/ 
f 940/940/ 941/941/ 942/942/ 
f 943/943/ 944/944/ 945/945/ 
f 946/946/ 947/947/ 948/948/ 
f 949/949/ 950/950/ 951/951/ 
f 952/952/ 953/953/ 954/954/ 
f 955/955/ 956/956/ 957/957/ 
f 958/958/ 959/959/ 960/960/ 
f 961/961/ 962/962/ 963/963/ 
f 964/964/ 965/965/ 966/966/ 
f 967/967/ 968/968/ 969/969/ 
f 970/970/ 971/971/ 972/972/ 
f 973/973/ 974/974/ 975/975/ 
f 976/976/ 977/977/ 978/978/ 
f 979/979/ 980/980/ 981/981/ 
f 982/982/ 983/983/ 984/984/ 
f 985/985/ 986/986/ 987/987/ 
f 988/988/ 989/989/ 990/990/ 
f 991/991/ 992/992/ 993/993/ 
f 994/994/ 995/995/ 996/996/ 
f 997/997/ 998/998/ 999/999/ 
f 1000/1000/ 1001/1001/ 1002/1002/ 
f 1003/1003/ 1004/1004/ 1005/1005/ 
f 1006/1006/ 1007/1007/ 1008/1008/ 
f 1009/1009/ 1010/1010/ 1011/1011/ 
f 1012/1012/ 1013/1013/ 1014/1014/ 
f 1015/1015/ 1016/1016/ 1017/1017/ 
f 1018/1018/ 1019/1019/ 1020/1020/ 
f 1021/1021/ 1022/1022/ 1023/1023/ 
f 1024/1024/ 1025/1025/ 1026/1026/ 
f 1027/1027/ 1028/1028/ 1029/1029/ 
f 1030/1030/ 1031/1031/ 1032/1032/ 
f 1033/1033/ 1034/1034/ 1035/1035/ 
f 1036/1036/ 1037/1037/ 1038/1038/ 
f 1039/1039/ 1040/1040/ 1041/1041/ 
f 1042/1042/ 1043/1043/ 1044/1044/ 
f 1045/1045/ 1046/1046/ 1047/1047/ 
f 1048/1048/ 1049/1049/ 1050/1050/ 
f 1051/1051/ 1052/1052/ 1053/1053/ 
f 1054/1054/ 1055/1055/ 1056/1056/ 
f 1057/1057/ 1058/1058/ 1059/1059/ 
f 1060/1060/ 1061/1061/ 1062/1062/ 
f 1063/1063/ 1064/1064/ 1065/1065/ 
f 1066/1066/ 1067/1067/ 1068/1068/ 
f 1069/1069/ 1070/1070/ 1071/1071/ 
f 1072/1072/ 1073/1073/ 1074/1074/ 
f 1075/1075/ 1076/1076/ 1077/1077/ 
f 1078/1078/ 1079/1079/ 1080/1080/ 
f 1081/1081/ 1082/1082/ 1083/1083/ 
f 1084/1084/ 1085/1085/ 1086/1086/ 
f 1087/1087/ 1088/1088/ 1089/1089/ 
f 1090/1090/ 1091/1091/ 1092/1092/ 
f 1093/1093/ 1094/1094/ 1095/1095/ 
f 1096/1096/ 1097/1097/ 1098/1098/ 
f 1099/1099/ 1100/1100/ 1101/1101/ 
f 1102/1102/ 1103/1103/ 1104/1104/ 
f 1105/1105/ 1106/1106/ 1107/1107/ 
f 1108/1108/ 1109/1109/ 1110/1110/ 
f 1111/1111/ 1112/1112/ 1113/1113/ 
f 1114/1114/ 1115/1115/ 1116/1116/ 
f 1117/1117/ 1118/1118/ 1119/1119/ 
f 1120/1120/ 1121/1121/ 1122/1122/ 
f 1123/1123/ 1124/1124/ 1125/1125/ 
f 1126/1126/ 1127/1127/ 1128/1128/ 
f 1129/1129/ 1130/1130/ 1131/1131/ 
f 1132/1132/ 1133/1133/ 1134/1134/ 
f 1135/1135/ 1136/1136/ 1137/1137/ 
f 1138/1138/ 1139/1139/ 1140/1140/ 
f 1141/1141/ 1142/1142/ 1143/1143/ 
f 1144/1144/ 1145/1145/ 1146/1146/ 
f 1147/1147/ 1148/1148/ 1149/1149/ 
f 1150/1150/ 1151/1151/ 1152/1152/ 
f 1153/1153/ 1154/1154/ 1155/1155/ 
f 1156/1156/ 1157/1157/ 1158/1158/ 
f 1159/1159/ 1160/1160/ 1161/1161/ 
f 1162/1162/ 1163/1163/ 1164/1164/ 
f 1165/1165/ 1166/1166/ 1167/1167/ 
f 1168/1168/ 1169/1169/ 1170/1170/ 
f 1171/1171/ 1172/1172/ 1173/1173/ 
f 1174/1174/ 1175/1175/ 1176/1176/ 
f 1177/1177/ 1178/1178/ 1179/1179/ 
f 1180/1180/ 1181/1181/ 1182/1182/ 
f 1183/1183/ 1184/1184/ 1185/1185/ 
f 1186/1186/ 1187/1187/ 1188/1188/ 
f 1189/1189/ 1190/1190/ 1191/1191/ 
f 1192/1192/ 1193/1193/ 1194/1194/ 
f 1195/1195/ 1196/1196/ 1197/1197/ 
f 1198/1198/ 1199/1199/ 1200/1200/ 
f 1201/1201/ 1202/1202/ 1203/1203/ 
f 1204/1204/ 1205/1205/ 1206/1206/ 
f 1207/1207/ 1208/1208/ 1209/1209/ 
f 1210/1210/ 1211/1211/ 1212/1212/ 
f 1213/1213/ 1214/1214/ 1215/1215/ 
f 1216/1216/ 1217/1217/ 1218/1218/ 
f 1219/1219/ 1220/1220/ 1221/1221/ 
f 1222/1222/ 1223/1223/ 1224/1224/ 
f 1225/1225/ 1226/1226/ 1227/1227/ 
f 1228/1228/ 1229/1229/ 1230/1230/ 
f 1231/1231/ 1232/1232/ 1233/1233/ 
f 1234/1234/ 1235/1235/ 1236/1236/ 
f 1237/1237/ 1238/1238/ 1239/1239/ 
f 1240/1240/ 1241/1241/ 1242/1242/ 
f 1243/1243/ 1244/1244/ 1245/1245/ 
f 1246/1246/ 1247/1247/ 1248/1248/ 
f 1249/1249/ 1250/1250/ 1251/1251/ 
f 1252/1252/ 1253/1253/ 1254/1254/ 
f 1255/1255/ 1256/1256/ 1257/1257/ 
f 1258/1258/ 1259/1259/ 1260/1260/ 
f 1261/1261/ 1262/1262/ 1263/1263/ 
f 1264/1264/ 1265/1265/ 1266/1266/ 
f 1267/1267/ 1268/1268/ 1269/1269/ 
f 1270/1270/ 1271/1271/ 1272/1272/ 
f 1273/1273/ 1274/1274/ 1275/1275/ 
f 1276/1276/ 1277/1277/ 1278/1278/ 
f 1279/1279/ 1280/1280/ 1281/1281/ 
f 1282/1282/ 1283/1283/ 1284/1284/ 
f 1285/1285/ 1286/1286/ 1287/1287/ 
f 1288/1288/ 1289/1289/ 1290/1290/ 
f 1291/1291/ 1292/1292/ 1293/1293/ 
f 1294/1294/ 1295/1295/ 1296/1296/ 
f 1297/1297/ 1298/1298/ 1299/1299/ 
f 1300/1300/ 1301/1301/ 1302/1302/ 
f 1303/1303/ 1304/1304/ 1305/1305/ 
f 1306/1306/ 1307/1307/ 1308/1308/ 
f 1309/1309/ 1310/1310/ 1311/1311/ 
f 1312/1312/ 1313/1313/ 1314/1314/ 
f 1315/1315/ 1316/1316/ 1317/1317/ 
f 1318/1318/ 1319/1319/ 1320/1320/ 
f 1321/1321/ 1322/1322/ 1323/1323/ 
f 1324/1324/ 1325/1325/ 1326/1326/ 
f 1327/1327/ 1328/1328/ 1329/1329/ 
f 1330/1330/ 1331/1331/ 1332/1332/ 
f 1333/1333/ 1334/1334/ 1335/1335/ 
f 1336/1336/ 1337/1337/ 1338/1338/ 
f 1339/1339/ 1340/1340/ 1341/1341/ 
f 1342/1342/ 1343/1343/ 1344/1344/ 
f 1345/1345/ 1346/1346/ 1347/1347/ 
f 1348/1348/ 1349/1349/ 1350/1350/ 
f 1351/1351/ 1352/1352/ 1353/1353/ 
f 1354/1354/ 1355/1355/ 1356/1356/ 
f 1357/1357/ 1358/1358/ 1359/1359/ 
f 1360/1360/ 1361/1361/ 1362/1362/ 
f 1363/1363/ 1364/1364/ 1365/1365/ 
f 1366/1366/ 1367/1367/ 1368/1368/ 
f 1369/1369/ 1370/1370/ 1371/1371/ 
f 1372/1372/ 1373/1373/ 1374/1374/ 
f 1375/1375/ 1376/1376/ 1377/1377/ 
f 1378/1378/ 1379/1379/ 1380/1380/ 
f 1381/1381/ 1382/1382/ 1383/1383/ 
f 1384/1384/ 1385/1385/ 1386/1386/ 
f 1387/1387/ 1388/1388/ 1389/1389/ 
f 1390/1390/ 1391/1391/ 1392/1392/ 
f 1393/1393/ 1394/1394/ 1395/1395/ 
f 1396/1396/ 1397/1397/ 1398/1398/ 
f 1399/1399/ 1400/1400/ 1401/1401/ 
f 1402/1402/ 1403/1403/ 1404/1404/ 
f 1405/1405/ 1406/1406/ 1407/1407/ 
f 1408/1408/ 1409/1409/ 1410/1410/ 
f 1411/1411/ 1412/1412/ 1413/1413/ 
f 1414/1414/ 1415/1415/ 1416/1416/ 
f 1417/1417/ 1418/1418/ 1419/1419/ 
f 1420/1420/ 1421/1421/ 1422/1422/ 
f 1423/1423/ 1424/1424/ 1425/1425/ 
f 1426/1426/ 1427/1427/ 1428/1428/ 
f 1429/1429/ 1430/1430/ 1431/1431/ 
f 1432/1432/ 1433/1433/ 1434/1434/ 
f 1435/1435/ 1436/1436/ 1437/1437/ 
f 1438/1438/ 1439/1439/ 1440/1440/ 
f 1441/1441/ 1442/1442/ 1443/1443/ 
f 1444/1444/ 1445/1445/ 1446/1446/ 
f 1447/1447/ 1448/1448/ 1449/1449/ 
f 1450/1450/ 1451/1451/ 1452/1452/ 
f 1453/1453/ 1454/1454/ 1455/1455/ 
f 1456/1456/ 1457/1457/ 1458/1458/ 
f 1459/1459/ 1460/1460/ 1461/1461/ 
f 1462/1462/ 1463/1463/ 1464/1464/ 
f 1465/1465/ 1466/1466/ 1467/1467/ 
f 1468/1468/ 1469/1469/ 1470/1470/ 
f 1471/1471/ 1472/1472/ 1473/1473/ 
f 1474/1474/ 1475/1475/ 1476/1476/ 
f 1477/1477/ 1478/1478/ 1479/1479/ 
f 1480/1480/ 1481/1481/ 1482/1482/ 
f 1483/1483/ 1484/1484/ 1485/1485/ 
f 1486/1486/ 1487/1487/ 1488/1488/ 
f 1489/1489/ 1490/1490/ 1491/1491/ 
f 1492/1492/ 1493/1493/ 1494/1494/ 
f 1495/1495/ 1496/1496/ 1497/1497/ 
f 1498/1498/ 1499/1499/ 1500/1500/ 
f 1501/1501/ 1502/1502/ 1503/1503/ 
f 1504/1504/ 1505/1505/ 1506/1506/ 
f 1507/1507/ 1508/1508/ 1509/1509/ 
f 1510/1510/ 1511/1511/ 1512/1512/ 
f 1513/1513/ 1514/1514/ 1515/1515/ 
f 1516/1516/ 1517/1517/ 1518/1518/ 
f 1519/1519/ 1520/1520/ 1521/1521/ 
f 1522/1522/ 1523/1523/ 1524/1524/ 
f 1525/1525/ 1526/1526/ 1527/1527/ 
f 1528/1528/ 1529/1529/ 1530/1530/ 
f 1531/1531/ 1532/1532/ 1533/1533/ 
f 1534/1534/ 1535/1535/ 1536/1536/ 
f 1537/1537/ 1538/1538/ 1539/1539/ 
f 1540/1540/ 1541/1541/ 1542/1542/ 
f 1543/1543/ 1544/1544/ 1545/1545/ 
f 1546/1546/ 1547/1547/ 1548/1548/ 
f 1549/1549/ 1550/1550/ 1551/1551/ 
f 1552/1552/ 1553/1553/ 1554/1554/ 
f 1555/1555/ 1556/1556/ 1557/1557/ 
f 1558/1558/ 1559/1559/ 1560/1560/ 
f 1561/1561/ 1562/1562/ 1563/1563/ 
f 1564/1564/ 1565/1565/ 1566/1566/ 
f 1567/1567/ 1568/1568/ 1569/1569/ 
f 1570/1570/ 1571/1571/ 1572/1572/ 
f 1573/1573/ 1574/1574/ 1575/1575/ 
f 1576/1576/ 1577/1577/ 1578/1578/ 
f 1579/1579/ 1580/1580/ 1581/1581/ 
f 1582/1582/ 1583/1583/ 1584/1584/ 
f 1585/1585/ 1586/1586/ 1587/1587/ 
f 1588/1588/ 1589/1589/ 1590/1590/ 
f 1591/1591/ 1592/1592/ 1593/1593/ 
f 1594/1594/ 1595/1595/ 1596/1596/ 
f 1597/1597/ 1598/1598/ 1599/1599/ 
f 1600/1600/ 1601/1601/ 1602/1602/ 
f 1603/1603/ 1604/1604/ 1605/1605/ 
f 1606/1606/ 1607/1607/ 1608/1608/ 
f 1609/1609/ 1610/1610/ 1611/1611/ 
f 1612/1612/ 1613/1613/ 1614/1614/ 
f 1615/1615/ 1616/1616/ 1617/1617/ 
f 1618/1618/ 1619/1619/ 1620/1620/ 
f 1621/1621/ 1622/1622/ 1623/1623/ 
f 1624/1624/ 1625/1625/ 1626/1626/ 
f 1627/1627/ 1628/1628/ 1629/1629/ 
f 1630/1630/ 1631/1631/ 1632/1632/ 
f 1633/1633/ 1634/1634/ 1635/1635/ 
f 1636/1636/ 1637/1637/ 1638/1638/ 
f 1639/1639/ 1640/1640/ 1641/1641/ 
f 1642/1642/ 1643/1643/ 1644/1644/ 
f 1645/1645/ 1646/1646/ 1647/1647/ 
f 1648/1648/ 1649/1649/ 1650/1650/ 
f 1651/1651/ 1652/1652/ 1653/1653/ 
f 1654/1654/ 1655/1655/ 1656/1656/ 
f 1657/1657/ 1658/1658/ 1659/1659/ 
f 1660/1660/ 1661/1661/ 1662/1662/ 
f 1663/1663/ 1664/1664/ 1665/1665/ 
f 1666/1666/ 1667/1667/ 1668/1668/ 
f 1669/1669/ 1670/1670/ 1671/1671/ 
f 1672/1672/ 1673/1673/ 1674/1674/ 
f 1675/1675/ 1676/1676/ 1677/1677/ 
f 1678/1678/ 1679/1679/ 1680/1680/ 
f 1681/1681/ 1682/1682/ 1683/1683/ 
f 1684/1684/ 1685/1685/ 1686/1686/ 
f 1687/1687/ 1688/1688/ 1689/1689/ 
f 1690/1690/ 1691/1691/ 1692/1692/ 
f 1693/1693/ 1694/1694/ 1695/1695/ 
f 1696/1696/ 1697/1697/ 1698/1698/ 
f 1699/1699/ 1700/1700/ 1701/1701/ 
f 1702/1702/ 1703/1703/ 1704/1704/ 
f 1705/1705/ 1706/1706/ 1707/1707/ 
f 1708/1708/ 1709/1709/ 1710/1710/ 
f 1711/1711/ 1712/1712/ 1713/1713/ 
f 1714/1714/ 1715/1715/ 1716/1716/ 
f 1717/1717/ 1718/1718/ 1719/1719/ 
f 1720/1720/ 1721/1721/ 1722/1722/ 
f 1723/1723/ 1724/1724/ 1725/1725/ 
f 1726/1726/ 1727/1727/ 1728/1728/ 
f 1729/1729/ 1730/1730/ 1731/1731/ 
f 1732/1732/ 1733/1733/ 1734/1734/ 
f 1735/1735/ 1736/1736/ 1737/1737/ 
f 1738/1738/ 1739/1739/ 1740/1740/ 
f 1741/1741/ 1742/1742/ 1743/1743/ 
f 1744/1744/ 1745/1745/ 1746/1746/ 
f 1747/1747/ 1748/1748/ 1749/1749/ 
f 1750/1750/ 1751/1751/ 1752/1752/ 
f 1753/1753/ 1754/1754/ 1755/1755/ 
f 1756/1756/ 1757/1757/ 1758/1758/ 
f 1759/1759/ 1760/1760/ 1761/1761/ 
f 1762/1762/ 1763/1763/ 1764/1764/ 
f 1765/1765/ 1766/1766/ 1767/1767/ 
f 1768/1768/ 1769/1769/ 1770/1770/ 
f 1771/1771/ 1772/1772/ 1773/1773/ 
f 1774/1774/ 1775/1775/ 1776/1776/ 
f 1777/1777/ 1778/1778/ 1779/1779/ 
f 1780/1780/ 1781/1781/ 1782/1782/ 
f 1783/1783/ 1784/1784/ 1785/1785/ 
f 1786/1786/ 1787/1787/ 1788/1788/ 
f 1789/1789/ 1790/1790/ 1791/1791/ 
f 1792/1792/ 1793/1793/ 1794/1794/ 
f 1795/1795/ 1796/1796/ 1797/1797/ 
f 1798/1798/ 1799/1799/ 1800/1800/ 
f 1801/1801/ 1802/1802/ 1803/1803/ 
f 1804/1804/ 1805/1805/ 1806/1806/ 
f 1807/1807/ 1808/1808/ 1809/1809/ 
f 1810/1810/ 1811/1811/ 1812/1812/ 
f 1813/1813/ 1814/1814/ 1815/1815/ 
f 1816/1816/ 1817/1817/ 1818/1818/ 
f 1819/1819/ 1820/1820/ 1821/1821/ 
f 1822/1822/ 1823/1823/ 1824/1824/ 
f 1825/1825/ 1826/1826/ 1827/1827/ 
f 1828/1828/ 1829/1829/ 1830/1830/ 
f 1831/1831/ 1832/1832/ 1833/1833/ 
f 1834/1834/ 1835/1835/ 1836/1836/ 
f 1837/1837/ 1838/1838/ 1839/1839/ 
f 1840/1840/ 1841/1841/ 1842/1842/ 
f 1843/1843/ 1844/1844/ 1845/1845/ 
f 1846/1846/ 1847/1847/ 1848/1848/ 
f 1849/1849/ 1850/1850/ 1851/1851/ 
f 1852/1852/ 1853/1853/ 1854/1854/ 
f 1855/1855/ 1856/1856/ 1857/1857/ 
f 1858/1858/ 1859/1859/ 1860/1860/ 
f 1861/1861/ 1862/1862/ 1863/1863/ 
f 1864/1864/ 1865/1865/ 1866/1866/ 
f 1867/1867/ 1868/1868/ 1869/1869/ 
f 1870/1870/ 1871/1871/ 1872/1872/ 
f 1873/1873/ 1874/1874/ 1875/1875/ 
